%
M48
M72
T01C0.0200
T02C0.0400
T03C0.1300
%
T01
X10333Y10100
X10333Y14100
X14333Y20600
X10333Y24300
X10333Y28300
X14333Y34800
X19833Y30800
X20833Y31800
X20833Y29800
X20833Y27800
X19833Y26800
X22833Y24800
X27533Y24300
X27533Y28300
X22833Y29800
X31533Y34800
X37033Y30800
X38033Y31800
X38033Y29800
X38033Y27800
X37033Y26800
X40033Y24800
X44733Y24300
X44733Y28300
X40033Y29800
X48733Y34800
X54233Y30800
X55233Y29800
X55233Y27800
X54233Y26800
X57233Y24800
X57233Y29800
X55233Y31800
X48733Y20600
X54233Y16600
X55233Y15600
X55233Y13600
X54233Y12600
X57233Y10600
X57233Y15600
X55233Y17600
X44733Y14100
X44733Y10100
X40033Y10600
X37033Y12600
X38033Y13600
X38033Y15600
X37033Y16600
X38033Y17600
X40033Y15600
X31533Y20600
X27533Y14100
X27533Y10100
X22833Y10600
X19833Y12600
X20833Y13600
X20833Y15600
X19833Y16600
X20833Y17600
X22833Y15600
T02
X21333Y15100
X20333Y15100
X20333Y16100
X21333Y16100
X21333Y17100
X20333Y17100
X20333Y18100
X21333Y18100
X21333Y19100
X20333Y19100
X20333Y20100
X21333Y20100
X19333Y19600
X18333Y19600
X17333Y19600
X16333Y19600
X15333Y19600
X14333Y19600
X13333Y20100
X13333Y19100
X12333Y19100
X12333Y20100
X12333Y18100
X12333Y17100
X12333Y16100
X12333Y15100
X12333Y14100
X12333Y13100
X12333Y12100
X12333Y11100
X12333Y10100
X12333Y9100
X13333Y9100
X13333Y10100
X14333Y10100
X14333Y9100
X15333Y9100
X15333Y10100
X16333Y10100
X17333Y10100
X17333Y11100
X16333Y11100
X15333Y11100
X15333Y12100
X16333Y12100
X17333Y12100
X17333Y13100
X16333Y13100
X15333Y13100
X15333Y14100
X16333Y14100
X17333Y14100
X17333Y15100
X16333Y15100
X15333Y15100
X15333Y16100
X16333Y16100
X17333Y16100
X17333Y17100
X16333Y17100
X15333Y17100
X15333Y18100
X16333Y18100
X17333Y18100
X18333Y18100
X18333Y17100
X19333Y17100
X19333Y18100
X19333Y16100
X18333Y16100
X18333Y15100
X19333Y15100
X19333Y14100
X18333Y14100
X18333Y13100
X19333Y13100
X19333Y12100
X18333Y12100
X18333Y11100
X19333Y11100
X19333Y10100
X18333Y10100
X20333Y10100
X20333Y9100
X21333Y9100
X21333Y10100
X21333Y11100
X20333Y11100
X20333Y12100
X21333Y12100
X21333Y13100
X20333Y13100
X20333Y14100
X21333Y14100
X14333Y14100
X13333Y14100
X13333Y13100
X14333Y13100
X14333Y12100
X13333Y12100
X13333Y11100
X14333Y11100
X14333Y15100
X13333Y15100
X13333Y16100
X14333Y16100
X14333Y17100
X13333Y17100
X13333Y18100
X14333Y18100
X15333Y21100
X16333Y21100
X17333Y21100
X18333Y21100
X20333Y23300
X20333Y24300
X21333Y24300
X21333Y23300
X21333Y25300
X20333Y25300
X20333Y26300
X21333Y26300
X21333Y27300
X20333Y27300
X20333Y28300
X21333Y28300
X21333Y29300
X20333Y29300
X20333Y30300
X21333Y30300
X21333Y31300
X20333Y31300
X20333Y32300
X21333Y32300
X21333Y33300
X20333Y33300
X20333Y34300
X21333Y34300
X19333Y33800
X18333Y33800
X17333Y33800
X16333Y33800
X15333Y33800
X14333Y33800
X13333Y34300
X13333Y33300
X12333Y33300
X12333Y34300
X12333Y32300
X12333Y31300
X12333Y30300
X12333Y29300
X12333Y28300
X12333Y27300
X12333Y26300
X12333Y25300
X12333Y24300
X12333Y23300
X13333Y23300
X13333Y24300
X14333Y24300
X14333Y23300
X15333Y23300
X15333Y24300
X16333Y24300
X17333Y24300
X17333Y25300
X16333Y25300
X15333Y25300
X15333Y26300
X16333Y26300
X17333Y26300
X17333Y27300
X16333Y27300
X15333Y27300
X15333Y28300
X16333Y28300
X17333Y28300
X17333Y29300
X16333Y29300
X15333Y29300
X15333Y30300
X16333Y30300
X17333Y30300
X17333Y31300
X16333Y31300
X15333Y31300
X15333Y32300
X16333Y32300
X17333Y32300
X18333Y32300
X18333Y31300
X19333Y31300
X19333Y32300
X19333Y30300
X18333Y30300
X18333Y29300
X19333Y29300
X19333Y28300
X18333Y28300
X18333Y27300
X19333Y27300
X19333Y26300
X18333Y26300
X18333Y25300
X19333Y25300
X19333Y24300
X18333Y24300
X14333Y25300
X13333Y25300
X13333Y26300
X14333Y26300
X14333Y27300
X13333Y27300
X13333Y28300
X14333Y28300
X14333Y29300
X13333Y29300
X13333Y30300
X14333Y30300
X14333Y31300
X13333Y31300
X13333Y32300
X14333Y32300
X15333Y35300
X16333Y35300
X17333Y35300
X18333Y35300
X29533Y34300
X29533Y33300
X30533Y33300
X30533Y34300
X31533Y33800
X32533Y33800
X33533Y33800
X34533Y33800
X35533Y33800
X36533Y33800
X37533Y34300
X37533Y33300
X37533Y32300
X36533Y32300
X35533Y32300
X35533Y31300
X36533Y31300
X37533Y31300
X37533Y30300
X36533Y30300
X35533Y30300
X35533Y29300
X36533Y29300
X37533Y29300
X37533Y28300
X36533Y28300
X35533Y28300
X35533Y27300
X36533Y27300
X37533Y27300
X37533Y26300
X36533Y26300
X35533Y26300
X35533Y25300
X36533Y25300
X37533Y25300
X37533Y24300
X36533Y24300
X35533Y24300
X34533Y24300
X33533Y24300
X32533Y24300
X31533Y24300
X31533Y23300
X32533Y23300
X30533Y23300
X29533Y23300
X29533Y24300
X30533Y24300
X30533Y25300
X29533Y25300
X29533Y26300
X30533Y26300
X30533Y27300
X29533Y27300
X29533Y28300
X30533Y28300
X30533Y29300
X29533Y29300
X29533Y30300
X30533Y30300
X30533Y31300
X29533Y31300
X29533Y32300
X30533Y32300
X31533Y32300
X31533Y31300
X32533Y31300
X32533Y32300
X33533Y32300
X33533Y31300
X34533Y31300
X34533Y32300
X34533Y30300
X33533Y30300
X33533Y29300
X34533Y29300
X34533Y28300
X33533Y28300
X33533Y27300
X34533Y27300
X34533Y26300
X33533Y26300
X33533Y25300
X34533Y25300
X32533Y25300
X31533Y25300
X31533Y26300
X32533Y26300
X32533Y27300
X31533Y27300
X31533Y28300
X32533Y28300
X32533Y29300
X31533Y29300
X31533Y30300
X32533Y30300
X32533Y35300
X33533Y35300
X34533Y35300
X35533Y35300
X38533Y34300
X38533Y33300
X38533Y32300
X38533Y31300
X38533Y30300
X38533Y29300
X38533Y28300
X38533Y27300
X38533Y26300
X38533Y25300
X38533Y24300
X38533Y23300
X37533Y23300
X35533Y21100
X34533Y21100
X33533Y21100
X32533Y21100
X32533Y19600
X31533Y19600
X30533Y19100
X29533Y19100
X29533Y20100
X30533Y20100
X30533Y18100
X29533Y18100
X29533Y17100
X30533Y17100
X30533Y16100
X29533Y16100
X29533Y15100
X30533Y15100
X30533Y14100
X29533Y14100
X29533Y13100
X30533Y13100
X30533Y12100
X29533Y12100
X29533Y11100
X30533Y11100
X30533Y10100
X29533Y10100
X29533Y9100
X30533Y9100
X31533Y9100
X31533Y10100
X32533Y10100
X32533Y9100
X33533Y10100
X34533Y10100
X34533Y11100
X33533Y11100
X33533Y12100
X34533Y12100
X34533Y13100
X33533Y13100
X33533Y14100
X34533Y14100
X34533Y15100
X33533Y15100
X33533Y16100
X34533Y16100
X34533Y17100
X33533Y17100
X33533Y18100
X34533Y18100
X35533Y18100
X35533Y17100
X36533Y17100
X36533Y18100
X37533Y18100
X37533Y17100
X37533Y16100
X36533Y16100
X35533Y16100
X35533Y15100
X36533Y15100
X37533Y15100
X37533Y14100
X36533Y14100
X35533Y14100
X35533Y13100
X36533Y13100
X37533Y13100
X37533Y12100
X36533Y12100
X35533Y12100
X35533Y11100
X36533Y11100
X37533Y11100
X37533Y10100
X36533Y10100
X35533Y10100
X37533Y9100
X38533Y9100
X38533Y10100
X38533Y11100
X38533Y12100
X38533Y13100
X38533Y14100
X38533Y15100
X38533Y16100
X38533Y17100
X38533Y18100
X38533Y19100
X38533Y20100
X37533Y20100
X37533Y19100
X36533Y19600
X35533Y19600
X34533Y19600
X33533Y19600
X32533Y18100
X31533Y18100
X31533Y17100
X32533Y17100
X32533Y16100
X31533Y16100
X31533Y15100
X32533Y15100
X32533Y14100
X31533Y14100
X31533Y13100
X32533Y13100
X32533Y12100
X31533Y12100
X31533Y11100
X32533Y11100
X46733Y11100
X46733Y12100
X47733Y12100
X47733Y11100
X47733Y10100
X46733Y10100
X46733Y9100
X47733Y9100
X48733Y9100
X48733Y10100
X49733Y10100
X49733Y9100
X50733Y10100
X50733Y11100
X49733Y11100
X48733Y11100
X48733Y12100
X49733Y12100
X50733Y12100
X50733Y13100
X49733Y13100
X48733Y13100
X48733Y14100
X49733Y14100
X50733Y14100
X50733Y15100
X49733Y15100
X48733Y15100
X48733Y16100
X49733Y16100
X50733Y16100
X50733Y17100
X49733Y17100
X48733Y17100
X48733Y18100
X49733Y18100
X50733Y18100
X51733Y18100
X51733Y17100
X52733Y17100
X52733Y18100
X53733Y18100
X53733Y17100
X54733Y17100
X54733Y18100
X54733Y19100
X54733Y20100
X53733Y19600
X52733Y19600
X51733Y19600
X50733Y19600
X49733Y19600
X48733Y19600
X47733Y19100
X46733Y19100
X46733Y20100
X47733Y20100
X47733Y18100
X46733Y18100
X46733Y17100
X47733Y17100
X47733Y16100
X46733Y16100
X46733Y15100
X47733Y15100
X47733Y14100
X46733Y14100
X46733Y13100
X47733Y13100
X51733Y13100
X51733Y14100
X52733Y14100
X52733Y13100
X52733Y12100
X51733Y12100
X51733Y11100
X52733Y11100
X52733Y10100
X51733Y10100
X53733Y10100
X54733Y10100
X54733Y9100
X55733Y9100
X55733Y10100
X55733Y11100
X55733Y12100
X54733Y12100
X53733Y12100
X53733Y11100
X54733Y11100
X54733Y13100
X53733Y13100
X53733Y14100
X54733Y14100
X54733Y15100
X53733Y15100
X53733Y16100
X54733Y16100
X55733Y16100
X55733Y15100
X55733Y14100
X55733Y13100
X52733Y15100
X51733Y15100
X51733Y16100
X52733Y16100
X55733Y17100
X55733Y18100
X55733Y19100
X55733Y20100
X52733Y21100
X51733Y21100
X50733Y21100
X49733Y21100
X49733Y23300
X48733Y23300
X48733Y24300
X49733Y24300
X50733Y24300
X50733Y25300
X49733Y25300
X48733Y25300
X48733Y26300
X49733Y26300
X50733Y26300
X50733Y27300
X49733Y27300
X48733Y27300
X48733Y28300
X49733Y28300
X50733Y28300
X50733Y29300
X49733Y29300
X48733Y29300
X48733Y30300
X49733Y30300
X50733Y30300
X50733Y31300
X49733Y31300
X48733Y31300
X48733Y32300
X49733Y32300
X50733Y32300
X51733Y32300
X51733Y31300
X52733Y31300
X52733Y32300
X53733Y32300
X53733Y31300
X54733Y31300
X54733Y32300
X54733Y33300
X54733Y34300
X53733Y33800
X52733Y33800
X51733Y33800
X50733Y33800
X49733Y33800
X48733Y33800
X47733Y33300
X46733Y33300
X46733Y34300
X47733Y34300
X47733Y32300
X46733Y32300
X46733Y31300
X47733Y31300
X47733Y30300
X46733Y30300
X46733Y29300
X47733Y29300
X47733Y28300
X46733Y28300
X46733Y27300
X47733Y27300
X47733Y26300
X46733Y26300
X46733Y25300
X47733Y25300
X47733Y24300
X46733Y24300
X46733Y23300
X47733Y23300
X51733Y24300
X52733Y24300
X52733Y25300
X51733Y25300
X51733Y26300
X52733Y26300
X52733Y27300
X51733Y27300
X51733Y28300
X52733Y28300
X52733Y29300
X51733Y29300
X51733Y30300
X52733Y30300
X53733Y30300
X53733Y29300
X54733Y29300
X54733Y30300
X55733Y30300
X55733Y29300
X55733Y28300
X55733Y27300
X54733Y27300
X53733Y27300
X53733Y28300
X54733Y28300
X54733Y26300
X53733Y26300
X53733Y25300
X54733Y25300
X54733Y24300
X53733Y24300
X54733Y23300
X55733Y23300
X55733Y24300
X55733Y25300
X55733Y26300
X55733Y31300
X55733Y32300
X55733Y33300
X55733Y34300
X52733Y35300
X51733Y35300
X50733Y35300
X49733Y35300
T03
X9333Y8600
X9333Y20600
X9333Y22800
X9333Y34800
X24333Y34800
X26533Y34800
X26533Y22800
X26533Y20600
X24333Y20600
X24333Y22800
X24333Y8600
X26533Y8600
X41533Y8600
X43733Y8600
X43733Y20600
X41533Y20600
X41533Y22800
X43733Y22800
X43733Y34800
X41533Y34800
X58733Y34800
X58733Y22800
X58733Y20600
X58733Y8600
M30
