G75*
%MOIN*%
%OFA0B0*%
%FSLAX25Y25*%
%IPPOS*%
%LPD*%
%AMOC8*
5,1,8,0,0,1.08239X$1,22.5*
%
%ADD10C,0.08300*%
%ADD11C,0.08400*%
%ADD12R,0.08200X0.08200*%
%ADD13C,0.08200*%
%ADD14R,0.08674X0.05524*%
%ADD15R,0.06115X0.03162*%
%ADD16C,0.13800*%
D10*
X0133333Y0091000D03*
X0133333Y0101000D03*
X0133333Y0111000D03*
X0133333Y0121000D03*
X0133333Y0131000D03*
X0133333Y0141000D03*
X0133333Y0151000D03*
X0133333Y0161000D03*
X0133333Y0171000D03*
X0133333Y0181000D03*
X0133333Y0191000D03*
X0133333Y0201000D03*
X0133333Y0233000D03*
X0133333Y0243000D03*
X0133333Y0253000D03*
X0133333Y0263000D03*
X0133333Y0273000D03*
X0133333Y0283000D03*
X0133333Y0293000D03*
X0133333Y0303000D03*
X0133333Y0313000D03*
X0133333Y0323000D03*
X0133333Y0333000D03*
X0133333Y0343000D03*
X0203333Y0343000D03*
X0203333Y0333000D03*
X0203333Y0323000D03*
X0203333Y0313000D03*
X0203333Y0303000D03*
X0203333Y0293000D03*
X0203333Y0283000D03*
X0203333Y0273000D03*
X0203333Y0263000D03*
X0203333Y0253000D03*
X0203333Y0243000D03*
X0203333Y0233000D03*
X0203333Y0201000D03*
X0203333Y0191000D03*
X0203333Y0181000D03*
X0203333Y0171000D03*
X0203333Y0161000D03*
X0203333Y0151000D03*
X0203333Y0141000D03*
X0203333Y0131000D03*
X0203333Y0121000D03*
X0203333Y0111000D03*
X0203333Y0101000D03*
X0203333Y0091000D03*
X0305333Y0091000D03*
X0305333Y0101000D03*
X0305333Y0111000D03*
X0305333Y0121000D03*
X0305333Y0131000D03*
X0305333Y0141000D03*
X0305333Y0151000D03*
X0305333Y0161000D03*
X0305333Y0171000D03*
X0305333Y0181000D03*
X0305333Y0191000D03*
X0305333Y0201000D03*
X0305333Y0233000D03*
X0305333Y0243000D03*
X0305333Y0253000D03*
X0305333Y0263000D03*
X0305333Y0273000D03*
X0305333Y0283000D03*
X0305333Y0293000D03*
X0305333Y0303000D03*
X0305333Y0313000D03*
X0305333Y0323000D03*
X0305333Y0333000D03*
X0305333Y0343000D03*
X0375333Y0343000D03*
X0375333Y0333000D03*
X0375333Y0323000D03*
X0375333Y0313000D03*
X0375333Y0303000D03*
X0375333Y0293000D03*
X0375333Y0283000D03*
X0375333Y0273000D03*
X0375333Y0263000D03*
X0375333Y0253000D03*
X0375333Y0243000D03*
X0375333Y0233000D03*
X0375333Y0201000D03*
X0375333Y0191000D03*
X0375333Y0181000D03*
X0375333Y0171000D03*
X0375333Y0161000D03*
X0375333Y0151000D03*
X0375333Y0141000D03*
X0375333Y0131000D03*
X0375333Y0121000D03*
X0375333Y0111000D03*
X0375333Y0101000D03*
X0375333Y0091000D03*
X0477333Y0091000D03*
X0477333Y0101000D03*
X0477333Y0111000D03*
X0477333Y0121000D03*
X0477333Y0131000D03*
X0477333Y0141000D03*
X0477333Y0151000D03*
X0477333Y0161000D03*
X0477333Y0171000D03*
X0477333Y0181000D03*
X0477333Y0191000D03*
X0477333Y0201000D03*
X0477333Y0233000D03*
X0477333Y0243000D03*
X0477333Y0253000D03*
X0477333Y0263000D03*
X0477333Y0273000D03*
X0477333Y0283000D03*
X0477333Y0293000D03*
X0477333Y0303000D03*
X0477333Y0313000D03*
X0477333Y0323000D03*
X0477333Y0333000D03*
X0477333Y0343000D03*
X0547333Y0343000D03*
X0547333Y0333000D03*
X0547333Y0323000D03*
X0547333Y0313000D03*
X0547333Y0303000D03*
X0547333Y0293000D03*
X0547333Y0283000D03*
X0547333Y0273000D03*
X0547333Y0263000D03*
X0547333Y0253000D03*
X0547333Y0243000D03*
X0547333Y0233000D03*
X0547333Y0201000D03*
X0547333Y0191000D03*
X0547333Y0181000D03*
X0547333Y0171000D03*
X0547333Y0161000D03*
X0547333Y0151000D03*
X0547333Y0141000D03*
X0547333Y0131000D03*
X0547333Y0121000D03*
X0547333Y0111000D03*
X0547333Y0101000D03*
X0547333Y0091000D03*
D11*
X0557333Y0091000D03*
X0557333Y0101000D03*
X0557333Y0111000D03*
X0557333Y0121000D03*
X0557333Y0131000D03*
X0557333Y0141000D03*
X0557333Y0151000D03*
X0557333Y0161000D03*
X0557333Y0171000D03*
X0557333Y0181000D03*
X0557333Y0191000D03*
X0557333Y0201000D03*
X0557333Y0233000D03*
X0557333Y0243000D03*
X0557333Y0253000D03*
X0557333Y0263000D03*
X0557333Y0273000D03*
X0557333Y0283000D03*
X0557333Y0293000D03*
X0557333Y0303000D03*
X0557333Y0313000D03*
X0557333Y0323000D03*
X0557333Y0333000D03*
X0557333Y0343000D03*
X0467333Y0343000D03*
X0467333Y0333000D03*
X0467333Y0323000D03*
X0467333Y0313000D03*
X0467333Y0303000D03*
X0467333Y0293000D03*
X0467333Y0283000D03*
X0467333Y0273000D03*
X0467333Y0263000D03*
X0467333Y0253000D03*
X0467333Y0243000D03*
X0467333Y0233000D03*
X0467333Y0201000D03*
X0467333Y0191000D03*
X0467333Y0181000D03*
X0467333Y0171000D03*
X0467333Y0161000D03*
X0467333Y0151000D03*
X0467333Y0141000D03*
X0467333Y0131000D03*
X0467333Y0121000D03*
X0467333Y0111000D03*
X0467333Y0101000D03*
X0467333Y0091000D03*
X0385333Y0091000D03*
X0385333Y0101000D03*
X0385333Y0111000D03*
X0385333Y0121000D03*
X0385333Y0131000D03*
X0385333Y0141000D03*
X0385333Y0151000D03*
X0385333Y0161000D03*
X0385333Y0171000D03*
X0385333Y0181000D03*
X0385333Y0191000D03*
X0385333Y0201000D03*
X0385333Y0233000D03*
X0385333Y0243000D03*
X0385333Y0253000D03*
X0385333Y0263000D03*
X0385333Y0273000D03*
X0385333Y0283000D03*
X0385333Y0293000D03*
X0385333Y0303000D03*
X0385333Y0313000D03*
X0385333Y0323000D03*
X0385333Y0333000D03*
X0385333Y0343000D03*
X0295333Y0343000D03*
X0295333Y0333000D03*
X0295333Y0323000D03*
X0295333Y0313000D03*
X0295333Y0303000D03*
X0295333Y0293000D03*
X0295333Y0283000D03*
X0295333Y0273000D03*
X0295333Y0263000D03*
X0295333Y0253000D03*
X0295333Y0243000D03*
X0295333Y0233000D03*
X0295333Y0201000D03*
X0295333Y0191000D03*
X0295333Y0181000D03*
X0295333Y0171000D03*
X0295333Y0161000D03*
X0295333Y0151000D03*
X0295333Y0141000D03*
X0295333Y0131000D03*
X0295333Y0121000D03*
X0295333Y0111000D03*
X0295333Y0101000D03*
X0295333Y0091000D03*
X0213333Y0091000D03*
X0213333Y0101000D03*
X0213333Y0111000D03*
X0213333Y0121000D03*
X0213333Y0131000D03*
X0213333Y0141000D03*
X0213333Y0151000D03*
X0213333Y0161000D03*
X0213333Y0171000D03*
X0213333Y0181000D03*
X0213333Y0191000D03*
X0213333Y0201000D03*
X0213333Y0233000D03*
X0213333Y0243000D03*
X0213333Y0253000D03*
X0213333Y0263000D03*
X0213333Y0273000D03*
X0213333Y0283000D03*
X0213333Y0293000D03*
X0213333Y0303000D03*
X0213333Y0313000D03*
X0213333Y0323000D03*
X0213333Y0333000D03*
X0213333Y0343000D03*
X0123333Y0343000D03*
X0123333Y0333000D03*
X0123333Y0323000D03*
X0123333Y0313000D03*
X0123333Y0303000D03*
X0123333Y0293000D03*
X0123333Y0283000D03*
X0123333Y0273000D03*
X0123333Y0263000D03*
X0123333Y0253000D03*
X0123333Y0243000D03*
X0123333Y0233000D03*
X0123333Y0201000D03*
X0123333Y0191000D03*
X0123333Y0181000D03*
X0123333Y0171000D03*
X0123333Y0161000D03*
X0123333Y0151000D03*
X0123333Y0141000D03*
X0123333Y0131000D03*
X0123333Y0121000D03*
X0123333Y0111000D03*
X0123333Y0101000D03*
X0123333Y0091000D03*
D12*
X0153333Y0211000D03*
X0153333Y0353000D03*
X0325333Y0353000D03*
X0325333Y0211000D03*
X0497333Y0211000D03*
X0497333Y0353000D03*
D13*
X0507333Y0353000D03*
X0517333Y0353000D03*
X0527333Y0353000D03*
X0527333Y0338000D03*
X0517333Y0338000D03*
X0507333Y0338000D03*
X0497333Y0338000D03*
X0487333Y0338000D03*
X0487333Y0323000D03*
X0487333Y0313000D03*
X0497333Y0313000D03*
X0497333Y0323000D03*
X0507333Y0323000D03*
X0507333Y0313000D03*
X0507333Y0303000D03*
X0497333Y0303000D03*
X0487333Y0303000D03*
X0487333Y0293000D03*
X0497333Y0293000D03*
X0507333Y0293000D03*
X0507333Y0283000D03*
X0497333Y0283000D03*
X0487333Y0283000D03*
X0487333Y0273000D03*
X0497333Y0273000D03*
X0507333Y0273000D03*
X0507333Y0263000D03*
X0497333Y0263000D03*
X0487333Y0263000D03*
X0487333Y0253000D03*
X0497333Y0253000D03*
X0507333Y0253000D03*
X0507333Y0243000D03*
X0497333Y0243000D03*
X0487333Y0243000D03*
X0487333Y0233000D03*
X0497333Y0233000D03*
X0517333Y0243000D03*
X0527333Y0243000D03*
X0527333Y0253000D03*
X0517333Y0253000D03*
X0517333Y0263000D03*
X0527333Y0263000D03*
X0527333Y0273000D03*
X0517333Y0273000D03*
X0517333Y0283000D03*
X0527333Y0283000D03*
X0527333Y0293000D03*
X0517333Y0293000D03*
X0517333Y0303000D03*
X0527333Y0303000D03*
X0527333Y0313000D03*
X0517333Y0313000D03*
X0517333Y0323000D03*
X0527333Y0323000D03*
X0537333Y0323000D03*
X0537333Y0313000D03*
X0537333Y0303000D03*
X0537333Y0293000D03*
X0537333Y0283000D03*
X0537333Y0273000D03*
X0537333Y0263000D03*
X0537333Y0253000D03*
X0537333Y0243000D03*
X0527333Y0211000D03*
X0517333Y0211000D03*
X0507333Y0211000D03*
X0507333Y0196000D03*
X0497333Y0196000D03*
X0487333Y0196000D03*
X0487333Y0181000D03*
X0487333Y0171000D03*
X0497333Y0171000D03*
X0497333Y0181000D03*
X0507333Y0181000D03*
X0507333Y0171000D03*
X0507333Y0161000D03*
X0497333Y0161000D03*
X0487333Y0161000D03*
X0487333Y0151000D03*
X0497333Y0151000D03*
X0507333Y0151000D03*
X0507333Y0141000D03*
X0497333Y0141000D03*
X0487333Y0141000D03*
X0487333Y0131000D03*
X0497333Y0131000D03*
X0507333Y0131000D03*
X0507333Y0121000D03*
X0497333Y0121000D03*
X0487333Y0121000D03*
X0487333Y0111000D03*
X0497333Y0111000D03*
X0507333Y0111000D03*
X0507333Y0101000D03*
X0497333Y0101000D03*
X0487333Y0101000D03*
X0487333Y0091000D03*
X0497333Y0091000D03*
X0517333Y0101000D03*
X0527333Y0101000D03*
X0527333Y0111000D03*
X0517333Y0111000D03*
X0517333Y0121000D03*
X0527333Y0121000D03*
X0527333Y0131000D03*
X0517333Y0131000D03*
X0517333Y0141000D03*
X0527333Y0141000D03*
X0527333Y0151000D03*
X0517333Y0151000D03*
X0517333Y0161000D03*
X0527333Y0161000D03*
X0527333Y0171000D03*
X0517333Y0171000D03*
X0517333Y0181000D03*
X0527333Y0181000D03*
X0537333Y0181000D03*
X0537333Y0171000D03*
X0537333Y0161000D03*
X0537333Y0151000D03*
X0537333Y0141000D03*
X0537333Y0131000D03*
X0537333Y0121000D03*
X0537333Y0111000D03*
X0537333Y0101000D03*
X0537333Y0196000D03*
X0527333Y0196000D03*
X0517333Y0196000D03*
X0537333Y0338000D03*
X0365333Y0338000D03*
X0355333Y0338000D03*
X0345333Y0338000D03*
X0335333Y0338000D03*
X0325333Y0338000D03*
X0315333Y0338000D03*
X0315333Y0323000D03*
X0315333Y0313000D03*
X0325333Y0313000D03*
X0325333Y0323000D03*
X0335333Y0323000D03*
X0335333Y0313000D03*
X0345333Y0313000D03*
X0345333Y0323000D03*
X0355333Y0323000D03*
X0355333Y0313000D03*
X0365333Y0313000D03*
X0365333Y0323000D03*
X0365333Y0303000D03*
X0355333Y0303000D03*
X0355333Y0293000D03*
X0365333Y0293000D03*
X0365333Y0283000D03*
X0355333Y0283000D03*
X0355333Y0273000D03*
X0365333Y0273000D03*
X0365333Y0263000D03*
X0355333Y0263000D03*
X0355333Y0253000D03*
X0365333Y0253000D03*
X0365333Y0243000D03*
X0355333Y0243000D03*
X0345333Y0243000D03*
X0335333Y0243000D03*
X0325333Y0243000D03*
X0315333Y0243000D03*
X0315333Y0233000D03*
X0325333Y0233000D03*
X0325333Y0253000D03*
X0315333Y0253000D03*
X0315333Y0263000D03*
X0325333Y0263000D03*
X0325333Y0273000D03*
X0315333Y0273000D03*
X0315333Y0283000D03*
X0325333Y0283000D03*
X0325333Y0293000D03*
X0315333Y0293000D03*
X0315333Y0303000D03*
X0325333Y0303000D03*
X0335333Y0303000D03*
X0335333Y0293000D03*
X0345333Y0293000D03*
X0345333Y0303000D03*
X0345333Y0283000D03*
X0335333Y0283000D03*
X0335333Y0273000D03*
X0345333Y0273000D03*
X0345333Y0263000D03*
X0335333Y0263000D03*
X0335333Y0253000D03*
X0345333Y0253000D03*
X0345333Y0211000D03*
X0335333Y0211000D03*
X0335333Y0196000D03*
X0345333Y0196000D03*
X0355333Y0196000D03*
X0365333Y0196000D03*
X0365333Y0181000D03*
X0355333Y0181000D03*
X0355333Y0171000D03*
X0365333Y0171000D03*
X0365333Y0161000D03*
X0355333Y0161000D03*
X0355333Y0151000D03*
X0365333Y0151000D03*
X0365333Y0141000D03*
X0355333Y0141000D03*
X0355333Y0131000D03*
X0365333Y0131000D03*
X0365333Y0121000D03*
X0355333Y0121000D03*
X0355333Y0111000D03*
X0365333Y0111000D03*
X0365333Y0101000D03*
X0355333Y0101000D03*
X0345333Y0101000D03*
X0335333Y0101000D03*
X0325333Y0101000D03*
X0315333Y0101000D03*
X0315333Y0091000D03*
X0325333Y0091000D03*
X0325333Y0111000D03*
X0315333Y0111000D03*
X0315333Y0121000D03*
X0325333Y0121000D03*
X0325333Y0131000D03*
X0315333Y0131000D03*
X0315333Y0141000D03*
X0325333Y0141000D03*
X0325333Y0151000D03*
X0315333Y0151000D03*
X0315333Y0161000D03*
X0325333Y0161000D03*
X0325333Y0171000D03*
X0315333Y0171000D03*
X0315333Y0181000D03*
X0325333Y0181000D03*
X0335333Y0181000D03*
X0335333Y0171000D03*
X0345333Y0171000D03*
X0345333Y0181000D03*
X0345333Y0161000D03*
X0335333Y0161000D03*
X0335333Y0151000D03*
X0345333Y0151000D03*
X0345333Y0141000D03*
X0335333Y0141000D03*
X0335333Y0131000D03*
X0345333Y0131000D03*
X0345333Y0121000D03*
X0335333Y0121000D03*
X0335333Y0111000D03*
X0345333Y0111000D03*
X0325333Y0196000D03*
X0315333Y0196000D03*
X0355333Y0211000D03*
X0355333Y0353000D03*
X0345333Y0353000D03*
X0335333Y0353000D03*
X0193333Y0338000D03*
X0183333Y0338000D03*
X0173333Y0338000D03*
X0163333Y0338000D03*
X0153333Y0338000D03*
X0143333Y0338000D03*
X0143333Y0323000D03*
X0143333Y0313000D03*
X0143333Y0303000D03*
X0143333Y0293000D03*
X0143333Y0283000D03*
X0143333Y0273000D03*
X0143333Y0263000D03*
X0143333Y0253000D03*
X0143333Y0243000D03*
X0143333Y0233000D03*
X0153333Y0233000D03*
X0153333Y0243000D03*
X0163333Y0243000D03*
X0173333Y0243000D03*
X0173333Y0253000D03*
X0163333Y0253000D03*
X0153333Y0253000D03*
X0153333Y0263000D03*
X0163333Y0263000D03*
X0173333Y0263000D03*
X0173333Y0273000D03*
X0163333Y0273000D03*
X0153333Y0273000D03*
X0153333Y0283000D03*
X0163333Y0283000D03*
X0173333Y0283000D03*
X0173333Y0293000D03*
X0163333Y0293000D03*
X0153333Y0293000D03*
X0153333Y0303000D03*
X0163333Y0303000D03*
X0173333Y0303000D03*
X0173333Y0313000D03*
X0163333Y0313000D03*
X0153333Y0313000D03*
X0153333Y0323000D03*
X0163333Y0323000D03*
X0173333Y0323000D03*
X0183333Y0323000D03*
X0183333Y0313000D03*
X0193333Y0313000D03*
X0193333Y0323000D03*
X0193333Y0303000D03*
X0183333Y0303000D03*
X0183333Y0293000D03*
X0193333Y0293000D03*
X0193333Y0283000D03*
X0183333Y0283000D03*
X0183333Y0273000D03*
X0193333Y0273000D03*
X0193333Y0263000D03*
X0183333Y0263000D03*
X0183333Y0253000D03*
X0193333Y0253000D03*
X0193333Y0243000D03*
X0183333Y0243000D03*
X0183333Y0211000D03*
X0173333Y0211000D03*
X0163333Y0211000D03*
X0163333Y0196000D03*
X0153333Y0196000D03*
X0143333Y0196000D03*
X0143333Y0181000D03*
X0143333Y0171000D03*
X0143333Y0161000D03*
X0143333Y0151000D03*
X0143333Y0141000D03*
X0143333Y0131000D03*
X0143333Y0121000D03*
X0143333Y0111000D03*
X0143333Y0101000D03*
X0143333Y0091000D03*
X0153333Y0091000D03*
X0153333Y0101000D03*
X0163333Y0101000D03*
X0173333Y0101000D03*
X0173333Y0111000D03*
X0163333Y0111000D03*
X0153333Y0111000D03*
X0153333Y0121000D03*
X0163333Y0121000D03*
X0173333Y0121000D03*
X0173333Y0131000D03*
X0163333Y0131000D03*
X0153333Y0131000D03*
X0153333Y0141000D03*
X0163333Y0141000D03*
X0173333Y0141000D03*
X0173333Y0151000D03*
X0163333Y0151000D03*
X0153333Y0151000D03*
X0153333Y0161000D03*
X0163333Y0161000D03*
X0173333Y0161000D03*
X0173333Y0171000D03*
X0163333Y0171000D03*
X0153333Y0171000D03*
X0153333Y0181000D03*
X0163333Y0181000D03*
X0173333Y0181000D03*
X0183333Y0181000D03*
X0183333Y0171000D03*
X0193333Y0171000D03*
X0193333Y0181000D03*
X0193333Y0196000D03*
X0183333Y0196000D03*
X0173333Y0196000D03*
X0183333Y0161000D03*
X0183333Y0151000D03*
X0193333Y0151000D03*
X0193333Y0161000D03*
X0193333Y0141000D03*
X0183333Y0141000D03*
X0183333Y0131000D03*
X0193333Y0131000D03*
X0193333Y0121000D03*
X0183333Y0121000D03*
X0183333Y0111000D03*
X0193333Y0111000D03*
X0193333Y0101000D03*
X0183333Y0101000D03*
X0183333Y0353000D03*
X0173333Y0353000D03*
X0163333Y0353000D03*
D14*
X0088865Y0324024D03*
X0088865Y0301976D03*
X0088865Y0274024D03*
X0088865Y0251976D03*
X0088865Y0182024D03*
X0088865Y0159976D03*
X0088865Y0132024D03*
X0088865Y0109976D03*
X0247802Y0109976D03*
X0260865Y0109976D03*
X0260865Y0132024D03*
X0247802Y0132024D03*
X0247802Y0159976D03*
X0260865Y0159976D03*
X0260865Y0182024D03*
X0247802Y0182024D03*
X0247802Y0251976D03*
X0260865Y0251976D03*
X0260865Y0274024D03*
X0247802Y0274024D03*
X0247802Y0301976D03*
X0260865Y0301976D03*
X0260865Y0324024D03*
X0247802Y0324024D03*
X0419802Y0324024D03*
X0432865Y0324024D03*
X0432865Y0301976D03*
X0419802Y0301976D03*
X0419802Y0274024D03*
X0432865Y0274024D03*
X0432865Y0251976D03*
X0419802Y0251976D03*
X0419802Y0182024D03*
X0432865Y0182024D03*
X0432865Y0159976D03*
X0419802Y0159976D03*
X0419802Y0132024D03*
X0432865Y0132024D03*
X0432865Y0109976D03*
X0419802Y0109976D03*
X0591802Y0109976D03*
X0591802Y0132024D03*
X0591802Y0159976D03*
X0591802Y0182024D03*
X0591802Y0251976D03*
X0591802Y0274024D03*
X0591802Y0301976D03*
X0591802Y0324024D03*
D15*
X0577333Y0318906D03*
X0577333Y0314969D03*
X0577333Y0311031D03*
X0577333Y0307094D03*
X0577333Y0268906D03*
X0577333Y0264969D03*
X0577333Y0261031D03*
X0577333Y0257094D03*
X0577333Y0176906D03*
X0577333Y0172969D03*
X0577333Y0169031D03*
X0577333Y0165094D03*
X0577333Y0126906D03*
X0577333Y0122969D03*
X0577333Y0119031D03*
X0577333Y0115094D03*
X0447333Y0115094D03*
X0447333Y0119031D03*
X0447333Y0122969D03*
X0447333Y0126906D03*
X0447333Y0165094D03*
X0447333Y0169031D03*
X0447333Y0172969D03*
X0447333Y0176906D03*
X0405333Y0176906D03*
X0405333Y0172969D03*
X0405333Y0169031D03*
X0405333Y0165094D03*
X0405333Y0126906D03*
X0405333Y0122969D03*
X0405333Y0119031D03*
X0405333Y0115094D03*
X0275333Y0115094D03*
X0275333Y0119031D03*
X0275333Y0122969D03*
X0275333Y0126906D03*
X0275333Y0165094D03*
X0275333Y0169031D03*
X0275333Y0172969D03*
X0275333Y0176906D03*
X0233333Y0176906D03*
X0233333Y0172969D03*
X0233333Y0169031D03*
X0233333Y0165094D03*
X0233333Y0126906D03*
X0233333Y0122969D03*
X0233333Y0119031D03*
X0233333Y0115094D03*
X0103333Y0115094D03*
X0103333Y0119031D03*
X0103333Y0122969D03*
X0103333Y0126906D03*
X0103333Y0165094D03*
X0103333Y0169031D03*
X0103333Y0172969D03*
X0103333Y0176906D03*
X0103333Y0257094D03*
X0103333Y0261031D03*
X0103333Y0264969D03*
X0103333Y0268906D03*
X0103333Y0307094D03*
X0103333Y0311031D03*
X0103333Y0314969D03*
X0103333Y0318906D03*
X0233333Y0318906D03*
X0233333Y0314969D03*
X0233333Y0311031D03*
X0233333Y0307094D03*
X0233333Y0268906D03*
X0233333Y0264969D03*
X0233333Y0261031D03*
X0233333Y0257094D03*
X0275333Y0257094D03*
X0275333Y0261031D03*
X0275333Y0264969D03*
X0275333Y0268906D03*
X0275333Y0307094D03*
X0275333Y0311031D03*
X0275333Y0314969D03*
X0275333Y0318906D03*
X0405333Y0318906D03*
X0405333Y0314969D03*
X0405333Y0311031D03*
X0405333Y0307094D03*
X0405333Y0268906D03*
X0405333Y0264969D03*
X0405333Y0261031D03*
X0405333Y0257094D03*
X0447333Y0257094D03*
X0447333Y0261031D03*
X0447333Y0264969D03*
X0447333Y0268906D03*
X0447333Y0307094D03*
X0447333Y0311031D03*
X0447333Y0314969D03*
X0447333Y0318906D03*
D16*
X0093333Y0086000D03*
X0093333Y0206000D03*
X0093333Y0228000D03*
X0093333Y0348000D03*
X0243333Y0348000D03*
X0265333Y0348000D03*
X0265333Y0228000D03*
X0265333Y0206000D03*
X0243333Y0206000D03*
X0243333Y0228000D03*
X0243333Y0086000D03*
X0265333Y0086000D03*
X0415333Y0086000D03*
X0437333Y0086000D03*
X0437333Y0206000D03*
X0415333Y0206000D03*
X0415333Y0228000D03*
X0437333Y0228000D03*
X0437333Y0348000D03*
X0415333Y0348000D03*
X0587333Y0348000D03*
X0587333Y0228000D03*
X0587333Y0206000D03*
X0587333Y0086000D03*
M02*
