G75*
%MOIN*%
%OFA0B0*%
%FSLAX25Y25*%
%IPPOS*%
%LPD*%
%AMOC8*
5,1,8,0,0,1.08239X$1,22.5*
%
%ADD10C,0.08300*%
%ADD11C,0.08400*%
%ADD12R,0.08200X0.08200*%
%ADD13C,0.08200*%
%ADD14R,0.08674X0.05524*%
%ADD15R,0.06115X0.03162*%
%ADD16C,0.13800*%
D10*
X0133333Y0091000D03*
X0133333Y0101000D03*
X0133333Y0111000D03*
X0133333Y0121000D03*
X0133333Y0131000D03*
X0133333Y0141000D03*
X0133333Y0151000D03*
X0133333Y0161000D03*
X0133333Y0171000D03*
X0133333Y0181000D03*
X0133333Y0191000D03*
X0133333Y0201000D03*
X0133333Y0233000D03*
X0133333Y0243000D03*
X0133333Y0253000D03*
X0133333Y0263000D03*
X0133333Y0273000D03*
X0133333Y0283000D03*
X0133333Y0293000D03*
X0133333Y0303000D03*
X0133333Y0313000D03*
X0133333Y0323000D03*
X0133333Y0333000D03*
X0133333Y0343000D03*
X0133333Y0375000D03*
X0133333Y0385000D03*
X0133333Y0395000D03*
X0133333Y0405000D03*
X0133333Y0415000D03*
X0133333Y0425000D03*
X0133333Y0435000D03*
X0133333Y0445000D03*
X0133333Y0455000D03*
X0133333Y0465000D03*
X0133333Y0475000D03*
X0133333Y0485000D03*
X0133333Y0517000D03*
X0133333Y0527000D03*
X0133333Y0537000D03*
X0133333Y0547000D03*
X0133333Y0557000D03*
X0133333Y0567000D03*
X0133333Y0577000D03*
X0133333Y0587000D03*
X0133333Y0597000D03*
X0133333Y0607000D03*
X0133333Y0617000D03*
X0133333Y0627000D03*
X0203333Y0627000D03*
X0203333Y0617000D03*
X0203333Y0607000D03*
X0203333Y0597000D03*
X0203333Y0587000D03*
X0203333Y0577000D03*
X0203333Y0567000D03*
X0203333Y0557000D03*
X0203333Y0547000D03*
X0203333Y0537000D03*
X0203333Y0527000D03*
X0203333Y0517000D03*
X0203333Y0485000D03*
X0203333Y0475000D03*
X0203333Y0465000D03*
X0203333Y0455000D03*
X0203333Y0445000D03*
X0203333Y0435000D03*
X0203333Y0425000D03*
X0203333Y0415000D03*
X0203333Y0405000D03*
X0203333Y0395000D03*
X0203333Y0385000D03*
X0203333Y0375000D03*
X0203333Y0343000D03*
X0203333Y0333000D03*
X0203333Y0323000D03*
X0203333Y0313000D03*
X0203333Y0303000D03*
X0203333Y0293000D03*
X0203333Y0283000D03*
X0203333Y0273000D03*
X0203333Y0263000D03*
X0203333Y0253000D03*
X0203333Y0243000D03*
X0203333Y0233000D03*
X0203333Y0201000D03*
X0203333Y0191000D03*
X0203333Y0181000D03*
X0203333Y0171000D03*
X0203333Y0161000D03*
X0203333Y0151000D03*
X0203333Y0141000D03*
X0203333Y0131000D03*
X0203333Y0121000D03*
X0203333Y0111000D03*
X0203333Y0101000D03*
X0203333Y0091000D03*
X0305333Y0091000D03*
X0305333Y0101000D03*
X0305333Y0111000D03*
X0305333Y0121000D03*
X0305333Y0131000D03*
X0305333Y0141000D03*
X0305333Y0151000D03*
X0305333Y0161000D03*
X0305333Y0171000D03*
X0305333Y0181000D03*
X0305333Y0191000D03*
X0305333Y0201000D03*
X0305333Y0233000D03*
X0305333Y0243000D03*
X0305333Y0253000D03*
X0305333Y0263000D03*
X0305333Y0273000D03*
X0305333Y0283000D03*
X0305333Y0293000D03*
X0305333Y0303000D03*
X0305333Y0313000D03*
X0305333Y0323000D03*
X0305333Y0333000D03*
X0305333Y0343000D03*
X0305333Y0375000D03*
X0305333Y0385000D03*
X0305333Y0395000D03*
X0305333Y0405000D03*
X0305333Y0415000D03*
X0305333Y0425000D03*
X0305333Y0435000D03*
X0305333Y0445000D03*
X0305333Y0455000D03*
X0305333Y0465000D03*
X0305333Y0475000D03*
X0305333Y0485000D03*
X0305333Y0517000D03*
X0305333Y0527000D03*
X0305333Y0537000D03*
X0305333Y0547000D03*
X0305333Y0557000D03*
X0305333Y0567000D03*
X0305333Y0577000D03*
X0305333Y0587000D03*
X0305333Y0597000D03*
X0305333Y0607000D03*
X0305333Y0617000D03*
X0305333Y0627000D03*
X0375333Y0627000D03*
X0375333Y0617000D03*
X0375333Y0607000D03*
X0375333Y0597000D03*
X0375333Y0587000D03*
X0375333Y0577000D03*
X0375333Y0567000D03*
X0375333Y0557000D03*
X0375333Y0547000D03*
X0375333Y0537000D03*
X0375333Y0527000D03*
X0375333Y0517000D03*
X0375333Y0485000D03*
X0375333Y0475000D03*
X0375333Y0465000D03*
X0375333Y0455000D03*
X0375333Y0445000D03*
X0375333Y0435000D03*
X0375333Y0425000D03*
X0375333Y0415000D03*
X0375333Y0405000D03*
X0375333Y0395000D03*
X0375333Y0385000D03*
X0375333Y0375000D03*
X0375333Y0343000D03*
X0375333Y0333000D03*
X0375333Y0323000D03*
X0375333Y0313000D03*
X0375333Y0303000D03*
X0375333Y0293000D03*
X0375333Y0283000D03*
X0375333Y0273000D03*
X0375333Y0263000D03*
X0375333Y0253000D03*
X0375333Y0243000D03*
X0375333Y0233000D03*
X0375333Y0201000D03*
X0375333Y0191000D03*
X0375333Y0181000D03*
X0375333Y0171000D03*
X0375333Y0161000D03*
X0375333Y0151000D03*
X0375333Y0141000D03*
X0375333Y0131000D03*
X0375333Y0121000D03*
X0375333Y0111000D03*
X0375333Y0101000D03*
X0375333Y0091000D03*
X0477333Y0091000D03*
X0477333Y0101000D03*
X0477333Y0111000D03*
X0477333Y0121000D03*
X0477333Y0131000D03*
X0477333Y0141000D03*
X0477333Y0151000D03*
X0477333Y0161000D03*
X0477333Y0171000D03*
X0477333Y0181000D03*
X0477333Y0191000D03*
X0477333Y0201000D03*
X0477333Y0233000D03*
X0477333Y0243000D03*
X0477333Y0253000D03*
X0477333Y0263000D03*
X0477333Y0273000D03*
X0477333Y0283000D03*
X0477333Y0293000D03*
X0477333Y0303000D03*
X0477333Y0313000D03*
X0477333Y0323000D03*
X0477333Y0333000D03*
X0477333Y0343000D03*
X0477333Y0375000D03*
X0477333Y0385000D03*
X0477333Y0395000D03*
X0477333Y0405000D03*
X0477333Y0415000D03*
X0477333Y0425000D03*
X0477333Y0435000D03*
X0477333Y0445000D03*
X0477333Y0455000D03*
X0477333Y0465000D03*
X0477333Y0475000D03*
X0477333Y0485000D03*
X0477333Y0517000D03*
X0477333Y0527000D03*
X0477333Y0537000D03*
X0477333Y0547000D03*
X0477333Y0557000D03*
X0477333Y0567000D03*
X0477333Y0577000D03*
X0477333Y0587000D03*
X0477333Y0597000D03*
X0477333Y0607000D03*
X0477333Y0617000D03*
X0477333Y0627000D03*
X0547333Y0627000D03*
X0547333Y0617000D03*
X0547333Y0607000D03*
X0547333Y0597000D03*
X0547333Y0587000D03*
X0547333Y0577000D03*
X0547333Y0567000D03*
X0547333Y0557000D03*
X0547333Y0547000D03*
X0547333Y0537000D03*
X0547333Y0527000D03*
X0547333Y0517000D03*
X0547333Y0485000D03*
X0547333Y0475000D03*
X0547333Y0465000D03*
X0547333Y0455000D03*
X0547333Y0445000D03*
X0547333Y0435000D03*
X0547333Y0425000D03*
X0547333Y0415000D03*
X0547333Y0405000D03*
X0547333Y0395000D03*
X0547333Y0385000D03*
X0547333Y0375000D03*
X0547333Y0343000D03*
X0547333Y0333000D03*
X0547333Y0323000D03*
X0547333Y0313000D03*
X0547333Y0303000D03*
X0547333Y0293000D03*
X0547333Y0283000D03*
X0547333Y0273000D03*
X0547333Y0263000D03*
X0547333Y0253000D03*
X0547333Y0243000D03*
X0547333Y0233000D03*
X0547333Y0201000D03*
X0547333Y0191000D03*
X0547333Y0181000D03*
X0547333Y0171000D03*
X0547333Y0161000D03*
X0547333Y0151000D03*
X0547333Y0141000D03*
X0547333Y0131000D03*
X0547333Y0121000D03*
X0547333Y0111000D03*
X0547333Y0101000D03*
X0547333Y0091000D03*
D11*
X0557333Y0091000D03*
X0557333Y0101000D03*
X0557333Y0111000D03*
X0557333Y0121000D03*
X0557333Y0131000D03*
X0557333Y0141000D03*
X0557333Y0151000D03*
X0557333Y0161000D03*
X0557333Y0171000D03*
X0557333Y0181000D03*
X0557333Y0191000D03*
X0557333Y0201000D03*
X0557333Y0233000D03*
X0557333Y0243000D03*
X0557333Y0253000D03*
X0557333Y0263000D03*
X0557333Y0273000D03*
X0557333Y0283000D03*
X0557333Y0293000D03*
X0557333Y0303000D03*
X0557333Y0313000D03*
X0557333Y0323000D03*
X0557333Y0333000D03*
X0557333Y0343000D03*
X0557333Y0375000D03*
X0557333Y0385000D03*
X0557333Y0395000D03*
X0557333Y0405000D03*
X0557333Y0415000D03*
X0557333Y0425000D03*
X0557333Y0435000D03*
X0557333Y0445000D03*
X0557333Y0455000D03*
X0557333Y0465000D03*
X0557333Y0475000D03*
X0557333Y0485000D03*
X0557333Y0517000D03*
X0557333Y0527000D03*
X0557333Y0537000D03*
X0557333Y0547000D03*
X0557333Y0557000D03*
X0557333Y0567000D03*
X0557333Y0577000D03*
X0557333Y0587000D03*
X0557333Y0597000D03*
X0557333Y0607000D03*
X0557333Y0617000D03*
X0557333Y0627000D03*
X0467333Y0627000D03*
X0467333Y0617000D03*
X0467333Y0607000D03*
X0467333Y0597000D03*
X0467333Y0587000D03*
X0467333Y0577000D03*
X0467333Y0567000D03*
X0467333Y0557000D03*
X0467333Y0547000D03*
X0467333Y0537000D03*
X0467333Y0527000D03*
X0467333Y0517000D03*
X0467333Y0485000D03*
X0467333Y0475000D03*
X0467333Y0465000D03*
X0467333Y0455000D03*
X0467333Y0445000D03*
X0467333Y0435000D03*
X0467333Y0425000D03*
X0467333Y0415000D03*
X0467333Y0405000D03*
X0467333Y0395000D03*
X0467333Y0385000D03*
X0467333Y0375000D03*
X0467333Y0343000D03*
X0467333Y0333000D03*
X0467333Y0323000D03*
X0467333Y0313000D03*
X0467333Y0303000D03*
X0467333Y0293000D03*
X0467333Y0283000D03*
X0467333Y0273000D03*
X0467333Y0263000D03*
X0467333Y0253000D03*
X0467333Y0243000D03*
X0467333Y0233000D03*
X0467333Y0201000D03*
X0467333Y0191000D03*
X0467333Y0181000D03*
X0467333Y0171000D03*
X0467333Y0161000D03*
X0467333Y0151000D03*
X0467333Y0141000D03*
X0467333Y0131000D03*
X0467333Y0121000D03*
X0467333Y0111000D03*
X0467333Y0101000D03*
X0467333Y0091000D03*
X0385333Y0091000D03*
X0385333Y0101000D03*
X0385333Y0111000D03*
X0385333Y0121000D03*
X0385333Y0131000D03*
X0385333Y0141000D03*
X0385333Y0151000D03*
X0385333Y0161000D03*
X0385333Y0171000D03*
X0385333Y0181000D03*
X0385333Y0191000D03*
X0385333Y0201000D03*
X0385333Y0233000D03*
X0385333Y0243000D03*
X0385333Y0253000D03*
X0385333Y0263000D03*
X0385333Y0273000D03*
X0385333Y0283000D03*
X0385333Y0293000D03*
X0385333Y0303000D03*
X0385333Y0313000D03*
X0385333Y0323000D03*
X0385333Y0333000D03*
X0385333Y0343000D03*
X0385333Y0375000D03*
X0385333Y0385000D03*
X0385333Y0395000D03*
X0385333Y0405000D03*
X0385333Y0415000D03*
X0385333Y0425000D03*
X0385333Y0435000D03*
X0385333Y0445000D03*
X0385333Y0455000D03*
X0385333Y0465000D03*
X0385333Y0475000D03*
X0385333Y0485000D03*
X0385333Y0517000D03*
X0385333Y0527000D03*
X0385333Y0537000D03*
X0385333Y0547000D03*
X0385333Y0557000D03*
X0385333Y0567000D03*
X0385333Y0577000D03*
X0385333Y0587000D03*
X0385333Y0597000D03*
X0385333Y0607000D03*
X0385333Y0617000D03*
X0385333Y0627000D03*
X0295333Y0627000D03*
X0295333Y0617000D03*
X0295333Y0607000D03*
X0295333Y0597000D03*
X0295333Y0587000D03*
X0295333Y0577000D03*
X0295333Y0567000D03*
X0295333Y0557000D03*
X0295333Y0547000D03*
X0295333Y0537000D03*
X0295333Y0527000D03*
X0295333Y0517000D03*
X0295333Y0485000D03*
X0295333Y0475000D03*
X0295333Y0465000D03*
X0295333Y0455000D03*
X0295333Y0445000D03*
X0295333Y0435000D03*
X0295333Y0425000D03*
X0295333Y0415000D03*
X0295333Y0405000D03*
X0295333Y0395000D03*
X0295333Y0385000D03*
X0295333Y0375000D03*
X0295333Y0343000D03*
X0295333Y0333000D03*
X0295333Y0323000D03*
X0295333Y0313000D03*
X0295333Y0303000D03*
X0295333Y0293000D03*
X0295333Y0283000D03*
X0295333Y0273000D03*
X0295333Y0263000D03*
X0295333Y0253000D03*
X0295333Y0243000D03*
X0295333Y0233000D03*
X0295333Y0201000D03*
X0295333Y0191000D03*
X0295333Y0181000D03*
X0295333Y0171000D03*
X0295333Y0161000D03*
X0295333Y0151000D03*
X0295333Y0141000D03*
X0295333Y0131000D03*
X0295333Y0121000D03*
X0295333Y0111000D03*
X0295333Y0101000D03*
X0295333Y0091000D03*
X0213333Y0091000D03*
X0213333Y0101000D03*
X0213333Y0111000D03*
X0213333Y0121000D03*
X0213333Y0131000D03*
X0213333Y0141000D03*
X0213333Y0151000D03*
X0213333Y0161000D03*
X0213333Y0171000D03*
X0213333Y0181000D03*
X0213333Y0191000D03*
X0213333Y0201000D03*
X0213333Y0233000D03*
X0213333Y0243000D03*
X0213333Y0253000D03*
X0213333Y0263000D03*
X0213333Y0273000D03*
X0213333Y0283000D03*
X0213333Y0293000D03*
X0213333Y0303000D03*
X0213333Y0313000D03*
X0213333Y0323000D03*
X0213333Y0333000D03*
X0213333Y0343000D03*
X0213333Y0375000D03*
X0213333Y0385000D03*
X0213333Y0395000D03*
X0213333Y0405000D03*
X0213333Y0415000D03*
X0213333Y0425000D03*
X0213333Y0435000D03*
X0213333Y0445000D03*
X0213333Y0455000D03*
X0213333Y0465000D03*
X0213333Y0475000D03*
X0213333Y0485000D03*
X0213333Y0517000D03*
X0213333Y0527000D03*
X0213333Y0537000D03*
X0213333Y0547000D03*
X0213333Y0557000D03*
X0213333Y0567000D03*
X0213333Y0577000D03*
X0213333Y0587000D03*
X0213333Y0597000D03*
X0213333Y0607000D03*
X0213333Y0617000D03*
X0213333Y0627000D03*
X0123333Y0627000D03*
X0123333Y0617000D03*
X0123333Y0607000D03*
X0123333Y0597000D03*
X0123333Y0587000D03*
X0123333Y0577000D03*
X0123333Y0567000D03*
X0123333Y0557000D03*
X0123333Y0547000D03*
X0123333Y0537000D03*
X0123333Y0527000D03*
X0123333Y0517000D03*
X0123333Y0485000D03*
X0123333Y0475000D03*
X0123333Y0465000D03*
X0123333Y0455000D03*
X0123333Y0445000D03*
X0123333Y0435000D03*
X0123333Y0425000D03*
X0123333Y0415000D03*
X0123333Y0405000D03*
X0123333Y0395000D03*
X0123333Y0385000D03*
X0123333Y0375000D03*
X0123333Y0343000D03*
X0123333Y0333000D03*
X0123333Y0323000D03*
X0123333Y0313000D03*
X0123333Y0303000D03*
X0123333Y0293000D03*
X0123333Y0283000D03*
X0123333Y0273000D03*
X0123333Y0263000D03*
X0123333Y0253000D03*
X0123333Y0243000D03*
X0123333Y0233000D03*
X0123333Y0201000D03*
X0123333Y0191000D03*
X0123333Y0181000D03*
X0123333Y0171000D03*
X0123333Y0161000D03*
X0123333Y0151000D03*
X0123333Y0141000D03*
X0123333Y0131000D03*
X0123333Y0121000D03*
X0123333Y0111000D03*
X0123333Y0101000D03*
X0123333Y0091000D03*
D12*
X0153333Y0211000D03*
X0153333Y0353000D03*
X0153333Y0495000D03*
X0153333Y0637000D03*
X0325333Y0637000D03*
X0325333Y0495000D03*
X0325333Y0353000D03*
X0325333Y0211000D03*
X0497333Y0211000D03*
X0497333Y0353000D03*
X0497333Y0495000D03*
X0497333Y0637000D03*
D13*
X0507333Y0637000D03*
X0517333Y0637000D03*
X0527333Y0637000D03*
X0527333Y0622000D03*
X0537333Y0622000D03*
X0537333Y0607000D03*
X0527333Y0607000D03*
X0517333Y0607000D03*
X0507333Y0607000D03*
X0497333Y0607000D03*
X0487333Y0607000D03*
X0487333Y0597000D03*
X0487333Y0587000D03*
X0487333Y0577000D03*
X0487333Y0567000D03*
X0487333Y0557000D03*
X0487333Y0547000D03*
X0487333Y0537000D03*
X0487333Y0527000D03*
X0487333Y0517000D03*
X0497333Y0517000D03*
X0497333Y0527000D03*
X0507333Y0527000D03*
X0517333Y0527000D03*
X0517333Y0537000D03*
X0507333Y0537000D03*
X0497333Y0537000D03*
X0497333Y0547000D03*
X0507333Y0547000D03*
X0517333Y0547000D03*
X0517333Y0557000D03*
X0507333Y0557000D03*
X0497333Y0557000D03*
X0497333Y0567000D03*
X0507333Y0567000D03*
X0517333Y0567000D03*
X0517333Y0577000D03*
X0507333Y0577000D03*
X0497333Y0577000D03*
X0497333Y0587000D03*
X0497333Y0597000D03*
X0507333Y0597000D03*
X0507333Y0587000D03*
X0517333Y0587000D03*
X0517333Y0597000D03*
X0527333Y0597000D03*
X0527333Y0587000D03*
X0527333Y0577000D03*
X0537333Y0577000D03*
X0537333Y0587000D03*
X0537333Y0597000D03*
X0537333Y0567000D03*
X0527333Y0567000D03*
X0527333Y0557000D03*
X0537333Y0557000D03*
X0537333Y0547000D03*
X0527333Y0547000D03*
X0527333Y0537000D03*
X0537333Y0537000D03*
X0537333Y0527000D03*
X0527333Y0527000D03*
X0527333Y0495000D03*
X0517333Y0495000D03*
X0507333Y0495000D03*
X0507333Y0480000D03*
X0497333Y0480000D03*
X0487333Y0480000D03*
X0487333Y0465000D03*
X0487333Y0455000D03*
X0487333Y0445000D03*
X0487333Y0435000D03*
X0487333Y0425000D03*
X0487333Y0415000D03*
X0487333Y0405000D03*
X0487333Y0395000D03*
X0487333Y0385000D03*
X0487333Y0375000D03*
X0497333Y0375000D03*
X0497333Y0385000D03*
X0507333Y0385000D03*
X0517333Y0385000D03*
X0517333Y0395000D03*
X0507333Y0395000D03*
X0497333Y0395000D03*
X0497333Y0405000D03*
X0507333Y0405000D03*
X0517333Y0405000D03*
X0517333Y0415000D03*
X0507333Y0415000D03*
X0497333Y0415000D03*
X0497333Y0425000D03*
X0507333Y0425000D03*
X0517333Y0425000D03*
X0517333Y0435000D03*
X0507333Y0435000D03*
X0497333Y0435000D03*
X0497333Y0445000D03*
X0507333Y0445000D03*
X0517333Y0445000D03*
X0517333Y0455000D03*
X0507333Y0455000D03*
X0497333Y0455000D03*
X0497333Y0465000D03*
X0507333Y0465000D03*
X0517333Y0465000D03*
X0527333Y0465000D03*
X0527333Y0455000D03*
X0537333Y0455000D03*
X0537333Y0465000D03*
X0537333Y0480000D03*
X0527333Y0480000D03*
X0517333Y0480000D03*
X0527333Y0445000D03*
X0527333Y0435000D03*
X0537333Y0435000D03*
X0537333Y0445000D03*
X0537333Y0425000D03*
X0527333Y0425000D03*
X0527333Y0415000D03*
X0537333Y0415000D03*
X0537333Y0405000D03*
X0527333Y0405000D03*
X0527333Y0395000D03*
X0537333Y0395000D03*
X0537333Y0385000D03*
X0527333Y0385000D03*
X0527333Y0353000D03*
X0517333Y0353000D03*
X0507333Y0353000D03*
X0507333Y0338000D03*
X0497333Y0338000D03*
X0487333Y0338000D03*
X0487333Y0323000D03*
X0487333Y0313000D03*
X0487333Y0303000D03*
X0487333Y0293000D03*
X0487333Y0283000D03*
X0487333Y0273000D03*
X0487333Y0263000D03*
X0487333Y0253000D03*
X0487333Y0243000D03*
X0487333Y0233000D03*
X0497333Y0233000D03*
X0497333Y0243000D03*
X0507333Y0243000D03*
X0517333Y0243000D03*
X0517333Y0253000D03*
X0507333Y0253000D03*
X0497333Y0253000D03*
X0497333Y0263000D03*
X0507333Y0263000D03*
X0517333Y0263000D03*
X0517333Y0273000D03*
X0507333Y0273000D03*
X0497333Y0273000D03*
X0497333Y0283000D03*
X0507333Y0283000D03*
X0517333Y0283000D03*
X0517333Y0293000D03*
X0507333Y0293000D03*
X0497333Y0293000D03*
X0497333Y0303000D03*
X0507333Y0303000D03*
X0517333Y0303000D03*
X0517333Y0313000D03*
X0507333Y0313000D03*
X0497333Y0313000D03*
X0497333Y0323000D03*
X0507333Y0323000D03*
X0517333Y0323000D03*
X0527333Y0323000D03*
X0527333Y0313000D03*
X0537333Y0313000D03*
X0537333Y0323000D03*
X0537333Y0338000D03*
X0527333Y0338000D03*
X0517333Y0338000D03*
X0527333Y0303000D03*
X0527333Y0293000D03*
X0537333Y0293000D03*
X0537333Y0303000D03*
X0537333Y0283000D03*
X0527333Y0283000D03*
X0527333Y0273000D03*
X0537333Y0273000D03*
X0537333Y0263000D03*
X0527333Y0263000D03*
X0527333Y0253000D03*
X0537333Y0253000D03*
X0537333Y0243000D03*
X0527333Y0243000D03*
X0527333Y0211000D03*
X0517333Y0211000D03*
X0507333Y0211000D03*
X0507333Y0196000D03*
X0497333Y0196000D03*
X0487333Y0196000D03*
X0487333Y0181000D03*
X0487333Y0171000D03*
X0487333Y0161000D03*
X0487333Y0151000D03*
X0487333Y0141000D03*
X0487333Y0131000D03*
X0487333Y0121000D03*
X0487333Y0111000D03*
X0487333Y0101000D03*
X0487333Y0091000D03*
X0497333Y0091000D03*
X0497333Y0101000D03*
X0507333Y0101000D03*
X0517333Y0101000D03*
X0517333Y0111000D03*
X0507333Y0111000D03*
X0497333Y0111000D03*
X0497333Y0121000D03*
X0507333Y0121000D03*
X0517333Y0121000D03*
X0517333Y0131000D03*
X0507333Y0131000D03*
X0497333Y0131000D03*
X0497333Y0141000D03*
X0507333Y0141000D03*
X0517333Y0141000D03*
X0517333Y0151000D03*
X0507333Y0151000D03*
X0497333Y0151000D03*
X0497333Y0161000D03*
X0507333Y0161000D03*
X0517333Y0161000D03*
X0517333Y0171000D03*
X0507333Y0171000D03*
X0497333Y0171000D03*
X0497333Y0181000D03*
X0507333Y0181000D03*
X0517333Y0181000D03*
X0527333Y0181000D03*
X0527333Y0171000D03*
X0537333Y0171000D03*
X0537333Y0181000D03*
X0537333Y0196000D03*
X0527333Y0196000D03*
X0517333Y0196000D03*
X0527333Y0161000D03*
X0527333Y0151000D03*
X0537333Y0151000D03*
X0537333Y0161000D03*
X0537333Y0141000D03*
X0527333Y0141000D03*
X0527333Y0131000D03*
X0537333Y0131000D03*
X0537333Y0121000D03*
X0527333Y0121000D03*
X0527333Y0111000D03*
X0537333Y0111000D03*
X0537333Y0101000D03*
X0527333Y0101000D03*
X0365333Y0101000D03*
X0355333Y0101000D03*
X0345333Y0101000D03*
X0335333Y0101000D03*
X0325333Y0101000D03*
X0315333Y0101000D03*
X0315333Y0091000D03*
X0325333Y0091000D03*
X0325333Y0111000D03*
X0315333Y0111000D03*
X0315333Y0121000D03*
X0325333Y0121000D03*
X0325333Y0131000D03*
X0315333Y0131000D03*
X0315333Y0141000D03*
X0325333Y0141000D03*
X0325333Y0151000D03*
X0315333Y0151000D03*
X0315333Y0161000D03*
X0325333Y0161000D03*
X0325333Y0171000D03*
X0315333Y0171000D03*
X0315333Y0181000D03*
X0325333Y0181000D03*
X0335333Y0181000D03*
X0335333Y0171000D03*
X0345333Y0171000D03*
X0345333Y0181000D03*
X0355333Y0181000D03*
X0355333Y0171000D03*
X0365333Y0171000D03*
X0365333Y0181000D03*
X0365333Y0196000D03*
X0355333Y0196000D03*
X0345333Y0196000D03*
X0335333Y0196000D03*
X0325333Y0196000D03*
X0315333Y0196000D03*
X0335333Y0211000D03*
X0345333Y0211000D03*
X0355333Y0211000D03*
X0355333Y0243000D03*
X0365333Y0243000D03*
X0365333Y0253000D03*
X0355333Y0253000D03*
X0355333Y0263000D03*
X0365333Y0263000D03*
X0365333Y0273000D03*
X0355333Y0273000D03*
X0355333Y0283000D03*
X0365333Y0283000D03*
X0365333Y0293000D03*
X0355333Y0293000D03*
X0355333Y0303000D03*
X0365333Y0303000D03*
X0365333Y0313000D03*
X0355333Y0313000D03*
X0355333Y0323000D03*
X0365333Y0323000D03*
X0365333Y0338000D03*
X0355333Y0338000D03*
X0345333Y0338000D03*
X0335333Y0338000D03*
X0325333Y0338000D03*
X0315333Y0338000D03*
X0315333Y0323000D03*
X0315333Y0313000D03*
X0325333Y0313000D03*
X0325333Y0323000D03*
X0335333Y0323000D03*
X0335333Y0313000D03*
X0345333Y0313000D03*
X0345333Y0323000D03*
X0345333Y0303000D03*
X0335333Y0303000D03*
X0335333Y0293000D03*
X0345333Y0293000D03*
X0345333Y0283000D03*
X0335333Y0283000D03*
X0335333Y0273000D03*
X0345333Y0273000D03*
X0345333Y0263000D03*
X0335333Y0263000D03*
X0335333Y0253000D03*
X0345333Y0253000D03*
X0345333Y0243000D03*
X0335333Y0243000D03*
X0325333Y0243000D03*
X0315333Y0243000D03*
X0315333Y0233000D03*
X0325333Y0233000D03*
X0325333Y0253000D03*
X0315333Y0253000D03*
X0315333Y0263000D03*
X0325333Y0263000D03*
X0325333Y0273000D03*
X0315333Y0273000D03*
X0315333Y0283000D03*
X0325333Y0283000D03*
X0325333Y0293000D03*
X0315333Y0293000D03*
X0315333Y0303000D03*
X0325333Y0303000D03*
X0335333Y0353000D03*
X0345333Y0353000D03*
X0355333Y0353000D03*
X0355333Y0385000D03*
X0365333Y0385000D03*
X0365333Y0395000D03*
X0355333Y0395000D03*
X0355333Y0405000D03*
X0365333Y0405000D03*
X0365333Y0415000D03*
X0355333Y0415000D03*
X0355333Y0425000D03*
X0365333Y0425000D03*
X0365333Y0435000D03*
X0355333Y0435000D03*
X0355333Y0445000D03*
X0365333Y0445000D03*
X0365333Y0455000D03*
X0355333Y0455000D03*
X0355333Y0465000D03*
X0365333Y0465000D03*
X0365333Y0480000D03*
X0355333Y0480000D03*
X0345333Y0480000D03*
X0335333Y0480000D03*
X0325333Y0480000D03*
X0315333Y0480000D03*
X0315333Y0465000D03*
X0315333Y0455000D03*
X0325333Y0455000D03*
X0325333Y0465000D03*
X0335333Y0465000D03*
X0335333Y0455000D03*
X0345333Y0455000D03*
X0345333Y0465000D03*
X0345333Y0445000D03*
X0335333Y0445000D03*
X0335333Y0435000D03*
X0345333Y0435000D03*
X0345333Y0425000D03*
X0335333Y0425000D03*
X0335333Y0415000D03*
X0345333Y0415000D03*
X0345333Y0405000D03*
X0335333Y0405000D03*
X0335333Y0395000D03*
X0345333Y0395000D03*
X0345333Y0385000D03*
X0335333Y0385000D03*
X0325333Y0385000D03*
X0315333Y0385000D03*
X0315333Y0375000D03*
X0325333Y0375000D03*
X0325333Y0395000D03*
X0315333Y0395000D03*
X0315333Y0405000D03*
X0325333Y0405000D03*
X0325333Y0415000D03*
X0315333Y0415000D03*
X0315333Y0425000D03*
X0325333Y0425000D03*
X0325333Y0435000D03*
X0315333Y0435000D03*
X0315333Y0445000D03*
X0325333Y0445000D03*
X0335333Y0495000D03*
X0345333Y0495000D03*
X0355333Y0495000D03*
X0355333Y0527000D03*
X0365333Y0527000D03*
X0365333Y0537000D03*
X0355333Y0537000D03*
X0355333Y0547000D03*
X0365333Y0547000D03*
X0365333Y0557000D03*
X0355333Y0557000D03*
X0355333Y0567000D03*
X0365333Y0567000D03*
X0365333Y0577000D03*
X0355333Y0577000D03*
X0355333Y0587000D03*
X0355333Y0597000D03*
X0365333Y0597000D03*
X0365333Y0587000D03*
X0345333Y0587000D03*
X0335333Y0587000D03*
X0335333Y0577000D03*
X0345333Y0577000D03*
X0345333Y0567000D03*
X0335333Y0567000D03*
X0335333Y0557000D03*
X0345333Y0557000D03*
X0345333Y0547000D03*
X0335333Y0547000D03*
X0335333Y0537000D03*
X0345333Y0537000D03*
X0345333Y0527000D03*
X0335333Y0527000D03*
X0325333Y0527000D03*
X0315333Y0527000D03*
X0315333Y0517000D03*
X0325333Y0517000D03*
X0325333Y0537000D03*
X0315333Y0537000D03*
X0315333Y0547000D03*
X0325333Y0547000D03*
X0325333Y0557000D03*
X0315333Y0557000D03*
X0315333Y0567000D03*
X0325333Y0567000D03*
X0325333Y0577000D03*
X0315333Y0577000D03*
X0315333Y0587000D03*
X0315333Y0597000D03*
X0325333Y0597000D03*
X0325333Y0587000D03*
X0335333Y0597000D03*
X0345333Y0597000D03*
X0345333Y0607000D03*
X0335333Y0607000D03*
X0325333Y0607000D03*
X0315333Y0607000D03*
X0315333Y0622000D03*
X0325333Y0622000D03*
X0335333Y0622000D03*
X0345333Y0622000D03*
X0355333Y0622000D03*
X0365333Y0622000D03*
X0365333Y0607000D03*
X0355333Y0607000D03*
X0355333Y0637000D03*
X0345333Y0637000D03*
X0335333Y0637000D03*
X0193333Y0622000D03*
X0183333Y0622000D03*
X0173333Y0622000D03*
X0163333Y0622000D03*
X0153333Y0622000D03*
X0143333Y0622000D03*
X0143333Y0607000D03*
X0153333Y0607000D03*
X0163333Y0607000D03*
X0163333Y0597000D03*
X0153333Y0597000D03*
X0143333Y0597000D03*
X0143333Y0587000D03*
X0143333Y0577000D03*
X0153333Y0577000D03*
X0153333Y0587000D03*
X0163333Y0587000D03*
X0163333Y0577000D03*
X0163333Y0567000D03*
X0153333Y0567000D03*
X0143333Y0567000D03*
X0143333Y0557000D03*
X0153333Y0557000D03*
X0163333Y0557000D03*
X0163333Y0547000D03*
X0153333Y0547000D03*
X0143333Y0547000D03*
X0143333Y0537000D03*
X0153333Y0537000D03*
X0163333Y0537000D03*
X0163333Y0527000D03*
X0153333Y0527000D03*
X0143333Y0527000D03*
X0143333Y0517000D03*
X0153333Y0517000D03*
X0173333Y0527000D03*
X0183333Y0527000D03*
X0183333Y0537000D03*
X0173333Y0537000D03*
X0173333Y0547000D03*
X0183333Y0547000D03*
X0183333Y0557000D03*
X0173333Y0557000D03*
X0173333Y0567000D03*
X0183333Y0567000D03*
X0183333Y0577000D03*
X0173333Y0577000D03*
X0173333Y0587000D03*
X0173333Y0597000D03*
X0183333Y0597000D03*
X0183333Y0587000D03*
X0193333Y0587000D03*
X0193333Y0577000D03*
X0193333Y0567000D03*
X0193333Y0557000D03*
X0193333Y0547000D03*
X0193333Y0537000D03*
X0193333Y0527000D03*
X0183333Y0495000D03*
X0173333Y0495000D03*
X0163333Y0495000D03*
X0163333Y0480000D03*
X0153333Y0480000D03*
X0143333Y0480000D03*
X0143333Y0465000D03*
X0143333Y0455000D03*
X0153333Y0455000D03*
X0153333Y0465000D03*
X0163333Y0465000D03*
X0163333Y0455000D03*
X0163333Y0445000D03*
X0153333Y0445000D03*
X0143333Y0445000D03*
X0143333Y0435000D03*
X0153333Y0435000D03*
X0163333Y0435000D03*
X0163333Y0425000D03*
X0153333Y0425000D03*
X0143333Y0425000D03*
X0143333Y0415000D03*
X0153333Y0415000D03*
X0163333Y0415000D03*
X0163333Y0405000D03*
X0153333Y0405000D03*
X0143333Y0405000D03*
X0143333Y0395000D03*
X0153333Y0395000D03*
X0163333Y0395000D03*
X0163333Y0385000D03*
X0153333Y0385000D03*
X0143333Y0385000D03*
X0143333Y0375000D03*
X0153333Y0375000D03*
X0173333Y0385000D03*
X0183333Y0385000D03*
X0183333Y0395000D03*
X0173333Y0395000D03*
X0173333Y0405000D03*
X0183333Y0405000D03*
X0183333Y0415000D03*
X0173333Y0415000D03*
X0173333Y0425000D03*
X0183333Y0425000D03*
X0183333Y0435000D03*
X0173333Y0435000D03*
X0173333Y0445000D03*
X0183333Y0445000D03*
X0183333Y0455000D03*
X0173333Y0455000D03*
X0173333Y0465000D03*
X0183333Y0465000D03*
X0193333Y0465000D03*
X0193333Y0455000D03*
X0193333Y0445000D03*
X0193333Y0435000D03*
X0193333Y0425000D03*
X0193333Y0415000D03*
X0193333Y0405000D03*
X0193333Y0395000D03*
X0193333Y0385000D03*
X0183333Y0353000D03*
X0173333Y0353000D03*
X0163333Y0353000D03*
X0163333Y0338000D03*
X0153333Y0338000D03*
X0143333Y0338000D03*
X0143333Y0323000D03*
X0143333Y0313000D03*
X0153333Y0313000D03*
X0153333Y0323000D03*
X0163333Y0323000D03*
X0163333Y0313000D03*
X0163333Y0303000D03*
X0153333Y0303000D03*
X0143333Y0303000D03*
X0143333Y0293000D03*
X0153333Y0293000D03*
X0163333Y0293000D03*
X0163333Y0283000D03*
X0153333Y0283000D03*
X0143333Y0283000D03*
X0143333Y0273000D03*
X0153333Y0273000D03*
X0163333Y0273000D03*
X0163333Y0263000D03*
X0153333Y0263000D03*
X0143333Y0263000D03*
X0143333Y0253000D03*
X0153333Y0253000D03*
X0163333Y0253000D03*
X0163333Y0243000D03*
X0153333Y0243000D03*
X0143333Y0243000D03*
X0143333Y0233000D03*
X0153333Y0233000D03*
X0173333Y0243000D03*
X0183333Y0243000D03*
X0183333Y0253000D03*
X0173333Y0253000D03*
X0173333Y0263000D03*
X0183333Y0263000D03*
X0183333Y0273000D03*
X0173333Y0273000D03*
X0173333Y0283000D03*
X0183333Y0283000D03*
X0183333Y0293000D03*
X0173333Y0293000D03*
X0173333Y0303000D03*
X0183333Y0303000D03*
X0183333Y0313000D03*
X0173333Y0313000D03*
X0173333Y0323000D03*
X0183333Y0323000D03*
X0193333Y0323000D03*
X0193333Y0313000D03*
X0193333Y0303000D03*
X0193333Y0293000D03*
X0193333Y0283000D03*
X0193333Y0273000D03*
X0193333Y0263000D03*
X0193333Y0253000D03*
X0193333Y0243000D03*
X0183333Y0211000D03*
X0173333Y0211000D03*
X0163333Y0211000D03*
X0163333Y0196000D03*
X0153333Y0196000D03*
X0143333Y0196000D03*
X0143333Y0181000D03*
X0143333Y0171000D03*
X0153333Y0171000D03*
X0153333Y0181000D03*
X0163333Y0181000D03*
X0163333Y0171000D03*
X0163333Y0161000D03*
X0153333Y0161000D03*
X0143333Y0161000D03*
X0143333Y0151000D03*
X0153333Y0151000D03*
X0163333Y0151000D03*
X0163333Y0141000D03*
X0153333Y0141000D03*
X0143333Y0141000D03*
X0143333Y0131000D03*
X0153333Y0131000D03*
X0163333Y0131000D03*
X0163333Y0121000D03*
X0153333Y0121000D03*
X0143333Y0121000D03*
X0143333Y0111000D03*
X0153333Y0111000D03*
X0163333Y0111000D03*
X0163333Y0101000D03*
X0153333Y0101000D03*
X0143333Y0101000D03*
X0143333Y0091000D03*
X0153333Y0091000D03*
X0173333Y0101000D03*
X0183333Y0101000D03*
X0183333Y0111000D03*
X0173333Y0111000D03*
X0173333Y0121000D03*
X0183333Y0121000D03*
X0183333Y0131000D03*
X0173333Y0131000D03*
X0173333Y0141000D03*
X0183333Y0141000D03*
X0183333Y0151000D03*
X0173333Y0151000D03*
X0173333Y0161000D03*
X0183333Y0161000D03*
X0183333Y0171000D03*
X0173333Y0171000D03*
X0173333Y0181000D03*
X0183333Y0181000D03*
X0193333Y0181000D03*
X0193333Y0171000D03*
X0193333Y0161000D03*
X0193333Y0151000D03*
X0193333Y0141000D03*
X0193333Y0131000D03*
X0193333Y0121000D03*
X0193333Y0111000D03*
X0193333Y0101000D03*
X0193333Y0196000D03*
X0183333Y0196000D03*
X0173333Y0196000D03*
X0173333Y0338000D03*
X0183333Y0338000D03*
X0193333Y0338000D03*
X0193333Y0480000D03*
X0183333Y0480000D03*
X0173333Y0480000D03*
X0193333Y0597000D03*
X0193333Y0607000D03*
X0183333Y0607000D03*
X0173333Y0607000D03*
X0173333Y0637000D03*
X0183333Y0637000D03*
X0163333Y0637000D03*
X0487333Y0622000D03*
X0497333Y0622000D03*
X0507333Y0622000D03*
X0517333Y0622000D03*
X0365333Y0161000D03*
X0355333Y0161000D03*
X0355333Y0151000D03*
X0365333Y0151000D03*
X0365333Y0141000D03*
X0355333Y0141000D03*
X0355333Y0131000D03*
X0365333Y0131000D03*
X0365333Y0121000D03*
X0355333Y0121000D03*
X0355333Y0111000D03*
X0365333Y0111000D03*
X0345333Y0111000D03*
X0335333Y0111000D03*
X0335333Y0121000D03*
X0345333Y0121000D03*
X0345333Y0131000D03*
X0335333Y0131000D03*
X0335333Y0141000D03*
X0345333Y0141000D03*
X0345333Y0151000D03*
X0335333Y0151000D03*
X0335333Y0161000D03*
X0345333Y0161000D03*
D14*
X0419802Y0159976D03*
X0432865Y0159976D03*
X0432865Y0182024D03*
X0419802Y0182024D03*
X0419802Y0132024D03*
X0432865Y0132024D03*
X0432865Y0109976D03*
X0419802Y0109976D03*
X0419802Y0251976D03*
X0432865Y0251976D03*
X0432865Y0274024D03*
X0419802Y0274024D03*
X0419802Y0301976D03*
X0432865Y0301976D03*
X0432865Y0324024D03*
X0419802Y0324024D03*
X0419802Y0393976D03*
X0432865Y0393976D03*
X0432865Y0416024D03*
X0419802Y0416024D03*
X0419802Y0443976D03*
X0432865Y0443976D03*
X0432865Y0466024D03*
X0419802Y0466024D03*
X0419802Y0535976D03*
X0432865Y0535976D03*
X0432865Y0558024D03*
X0419802Y0558024D03*
X0419802Y0585976D03*
X0432865Y0585976D03*
X0432865Y0608024D03*
X0419802Y0608024D03*
X0260865Y0608024D03*
X0247802Y0608024D03*
X0247802Y0585976D03*
X0260865Y0585976D03*
X0260865Y0558024D03*
X0247802Y0558024D03*
X0247802Y0535976D03*
X0260865Y0535976D03*
X0260865Y0466024D03*
X0247802Y0466024D03*
X0247802Y0443976D03*
X0260865Y0443976D03*
X0260865Y0416024D03*
X0247802Y0416024D03*
X0247802Y0393976D03*
X0260865Y0393976D03*
X0260865Y0324024D03*
X0247802Y0324024D03*
X0247802Y0301976D03*
X0260865Y0301976D03*
X0260865Y0274024D03*
X0247802Y0274024D03*
X0247802Y0251976D03*
X0260865Y0251976D03*
X0260865Y0182024D03*
X0247802Y0182024D03*
X0247802Y0159976D03*
X0260865Y0159976D03*
X0260865Y0132024D03*
X0247802Y0132024D03*
X0247802Y0109976D03*
X0260865Y0109976D03*
X0088865Y0109976D03*
X0088865Y0132024D03*
X0088865Y0159976D03*
X0088865Y0182024D03*
X0088865Y0251976D03*
X0088865Y0274024D03*
X0088865Y0301976D03*
X0088865Y0324024D03*
X0088865Y0393976D03*
X0088865Y0416024D03*
X0088865Y0443976D03*
X0088865Y0466024D03*
X0088865Y0535976D03*
X0088865Y0558024D03*
X0088865Y0585976D03*
X0088865Y0608024D03*
X0591802Y0608024D03*
X0591802Y0585976D03*
X0591802Y0558024D03*
X0591802Y0535976D03*
X0591802Y0466024D03*
X0591802Y0443976D03*
X0591802Y0416024D03*
X0591802Y0393976D03*
X0591802Y0324024D03*
X0591802Y0301976D03*
X0591802Y0274024D03*
X0591802Y0251976D03*
X0591802Y0182024D03*
X0591802Y0159976D03*
X0591802Y0132024D03*
X0591802Y0109976D03*
D15*
X0577333Y0115094D03*
X0577333Y0119031D03*
X0577333Y0122969D03*
X0577333Y0126906D03*
X0577333Y0165094D03*
X0577333Y0169031D03*
X0577333Y0172969D03*
X0577333Y0176906D03*
X0577333Y0257094D03*
X0577333Y0261031D03*
X0577333Y0264969D03*
X0577333Y0268906D03*
X0577333Y0307094D03*
X0577333Y0311031D03*
X0577333Y0314969D03*
X0577333Y0318906D03*
X0577333Y0399094D03*
X0577333Y0403031D03*
X0577333Y0406969D03*
X0577333Y0410906D03*
X0577333Y0449094D03*
X0577333Y0453031D03*
X0577333Y0456969D03*
X0577333Y0460906D03*
X0577333Y0541094D03*
X0577333Y0545031D03*
X0577333Y0548969D03*
X0577333Y0552906D03*
X0577333Y0591094D03*
X0577333Y0595031D03*
X0577333Y0598969D03*
X0577333Y0602906D03*
X0447333Y0602906D03*
X0447333Y0598969D03*
X0447333Y0595031D03*
X0447333Y0591094D03*
X0447333Y0552906D03*
X0447333Y0548969D03*
X0447333Y0545031D03*
X0447333Y0541094D03*
X0405333Y0541094D03*
X0405333Y0545031D03*
X0405333Y0548969D03*
X0405333Y0552906D03*
X0405333Y0591094D03*
X0405333Y0595031D03*
X0405333Y0598969D03*
X0405333Y0602906D03*
X0275333Y0602906D03*
X0275333Y0598969D03*
X0275333Y0595031D03*
X0275333Y0591094D03*
X0275333Y0552906D03*
X0275333Y0548969D03*
X0275333Y0545031D03*
X0275333Y0541094D03*
X0233333Y0541094D03*
X0233333Y0545031D03*
X0233333Y0548969D03*
X0233333Y0552906D03*
X0233333Y0591094D03*
X0233333Y0595031D03*
X0233333Y0598969D03*
X0233333Y0602906D03*
X0103333Y0602906D03*
X0103333Y0598969D03*
X0103333Y0595031D03*
X0103333Y0591094D03*
X0103333Y0552906D03*
X0103333Y0548969D03*
X0103333Y0545031D03*
X0103333Y0541094D03*
X0103333Y0460906D03*
X0103333Y0456969D03*
X0103333Y0453031D03*
X0103333Y0449094D03*
X0103333Y0410906D03*
X0103333Y0406969D03*
X0103333Y0403031D03*
X0103333Y0399094D03*
X0103333Y0318906D03*
X0103333Y0314969D03*
X0103333Y0311031D03*
X0103333Y0307094D03*
X0103333Y0268906D03*
X0103333Y0264969D03*
X0103333Y0261031D03*
X0103333Y0257094D03*
X0103333Y0176906D03*
X0103333Y0172969D03*
X0103333Y0169031D03*
X0103333Y0165094D03*
X0103333Y0126906D03*
X0103333Y0122969D03*
X0103333Y0119031D03*
X0103333Y0115094D03*
X0233333Y0115094D03*
X0233333Y0119031D03*
X0233333Y0122969D03*
X0233333Y0126906D03*
X0233333Y0165094D03*
X0233333Y0169031D03*
X0233333Y0172969D03*
X0233333Y0176906D03*
X0275333Y0176906D03*
X0275333Y0172969D03*
X0275333Y0169031D03*
X0275333Y0165094D03*
X0275333Y0126906D03*
X0275333Y0122969D03*
X0275333Y0119031D03*
X0275333Y0115094D03*
X0405333Y0115094D03*
X0405333Y0119031D03*
X0405333Y0122969D03*
X0405333Y0126906D03*
X0405333Y0165094D03*
X0405333Y0169031D03*
X0405333Y0172969D03*
X0405333Y0176906D03*
X0447333Y0176906D03*
X0447333Y0172969D03*
X0447333Y0169031D03*
X0447333Y0165094D03*
X0447333Y0126906D03*
X0447333Y0122969D03*
X0447333Y0119031D03*
X0447333Y0115094D03*
X0447333Y0257094D03*
X0447333Y0261031D03*
X0447333Y0264969D03*
X0447333Y0268906D03*
X0447333Y0307094D03*
X0447333Y0311031D03*
X0447333Y0314969D03*
X0447333Y0318906D03*
X0405333Y0318906D03*
X0405333Y0314969D03*
X0405333Y0311031D03*
X0405333Y0307094D03*
X0405333Y0268906D03*
X0405333Y0264969D03*
X0405333Y0261031D03*
X0405333Y0257094D03*
X0275333Y0257094D03*
X0275333Y0261031D03*
X0275333Y0264969D03*
X0275333Y0268906D03*
X0275333Y0307094D03*
X0275333Y0311031D03*
X0275333Y0314969D03*
X0275333Y0318906D03*
X0233333Y0318906D03*
X0233333Y0314969D03*
X0233333Y0311031D03*
X0233333Y0307094D03*
X0233333Y0268906D03*
X0233333Y0264969D03*
X0233333Y0261031D03*
X0233333Y0257094D03*
X0233333Y0399094D03*
X0233333Y0403031D03*
X0233333Y0406969D03*
X0233333Y0410906D03*
X0233333Y0449094D03*
X0233333Y0453031D03*
X0233333Y0456969D03*
X0233333Y0460906D03*
X0275333Y0460906D03*
X0275333Y0456969D03*
X0275333Y0453031D03*
X0275333Y0449094D03*
X0275333Y0410906D03*
X0275333Y0406969D03*
X0275333Y0403031D03*
X0275333Y0399094D03*
X0405333Y0399094D03*
X0405333Y0403031D03*
X0405333Y0406969D03*
X0405333Y0410906D03*
X0405333Y0449094D03*
X0405333Y0453031D03*
X0405333Y0456969D03*
X0405333Y0460906D03*
X0447333Y0460906D03*
X0447333Y0456969D03*
X0447333Y0453031D03*
X0447333Y0449094D03*
X0447333Y0410906D03*
X0447333Y0406969D03*
X0447333Y0403031D03*
X0447333Y0399094D03*
D16*
X0093333Y0086000D03*
X0093333Y0206000D03*
X0093333Y0228000D03*
X0093333Y0348000D03*
X0093333Y0370000D03*
X0093333Y0490000D03*
X0093333Y0512000D03*
X0093333Y0632000D03*
X0243333Y0632000D03*
X0265333Y0632000D03*
X0265333Y0512000D03*
X0243333Y0512000D03*
X0243333Y0490000D03*
X0265333Y0490000D03*
X0265333Y0370000D03*
X0243333Y0370000D03*
X0243333Y0348000D03*
X0265333Y0348000D03*
X0265333Y0228000D03*
X0243333Y0228000D03*
X0243333Y0206000D03*
X0265333Y0206000D03*
X0265333Y0086000D03*
X0243333Y0086000D03*
X0415333Y0086000D03*
X0437333Y0086000D03*
X0437333Y0206000D03*
X0415333Y0206000D03*
X0415333Y0228000D03*
X0437333Y0228000D03*
X0437333Y0348000D03*
X0415333Y0348000D03*
X0415333Y0370000D03*
X0437333Y0370000D03*
X0437333Y0490000D03*
X0415333Y0490000D03*
X0415333Y0512000D03*
X0437333Y0512000D03*
X0437333Y0632000D03*
X0415333Y0632000D03*
X0587333Y0632000D03*
X0587333Y0512000D03*
X0587333Y0490000D03*
X0587333Y0370000D03*
X0587333Y0348000D03*
X0587333Y0228000D03*
X0587333Y0206000D03*
X0587333Y0086000D03*
M02*
