G75*
%MOIN*%
%OFA0B0*%
%FSLAX25Y25*%
%IPPOS*%
%LPD*%
%AMOC8*
5,1,8,0,0,1.08239X$1,22.5*
%
%ADD10C,0.01000*%
%ADD11C,0.01100*%
D10*
X0059333Y0217000D02*
X0063329Y0217000D01*
X0067266Y0217000D02*
X0071261Y0217000D01*
X0075198Y0217000D02*
X0079194Y0217000D01*
X0083131Y0217000D02*
X0087126Y0217000D01*
X0091063Y0217000D02*
X0095059Y0217000D01*
X0098996Y0217000D02*
X0102991Y0217000D01*
X0106928Y0217000D02*
X0110924Y0217000D01*
X0114861Y0217000D02*
X0118856Y0217000D01*
X0122793Y0217000D02*
X0126789Y0217000D01*
X0130726Y0217000D02*
X0134721Y0217000D01*
X0138658Y0217000D02*
X0142654Y0217000D01*
X0146591Y0217000D02*
X0150586Y0217000D01*
X0154523Y0217000D02*
X0158519Y0217000D01*
X0162456Y0217000D02*
X0166451Y0217000D01*
X0170388Y0217000D02*
X0174384Y0217000D01*
X0178321Y0217000D02*
X0182316Y0217000D01*
X0186253Y0217000D02*
X0190249Y0217000D01*
X0194186Y0217000D02*
X0198181Y0217000D01*
X0202118Y0217000D02*
X0206114Y0217000D01*
X0210051Y0217000D02*
X0214046Y0217000D01*
X0217983Y0217000D02*
X0221979Y0217000D01*
X0225916Y0217000D02*
X0229911Y0217000D01*
X0233848Y0217000D02*
X0237844Y0217000D01*
X0241781Y0217000D02*
X0245776Y0217000D01*
X0249713Y0217000D02*
X0253709Y0217000D01*
X0254333Y0216455D02*
X0254333Y0212451D01*
X0254333Y0208514D02*
X0254333Y0204511D01*
X0254333Y0200574D02*
X0254333Y0196570D01*
X0254333Y0192633D02*
X0254333Y0188630D01*
X0254333Y0184693D02*
X0254333Y0180690D01*
X0254333Y0176753D02*
X0254333Y0172749D01*
X0254333Y0168812D02*
X0254333Y0164809D01*
X0254333Y0160872D02*
X0254333Y0156868D01*
X0254333Y0152931D02*
X0254333Y0148928D01*
X0254333Y0144991D02*
X0254333Y0140987D01*
X0254333Y0137050D02*
X0254333Y0133047D01*
X0254333Y0129110D02*
X0254333Y0125107D01*
X0254333Y0121170D02*
X0254333Y0117166D01*
X0254333Y0113229D02*
X0254333Y0109226D01*
X0254333Y0105289D02*
X0254333Y0101285D01*
X0254333Y0097348D02*
X0254333Y0093345D01*
X0254333Y0089408D02*
X0254333Y0085404D01*
X0254333Y0081467D02*
X0254333Y0077464D01*
X0254333Y0073527D02*
X0254333Y0069523D01*
X0254333Y0065586D02*
X0254333Y0061583D01*
X0254333Y0057646D02*
X0254333Y0053643D01*
X0254333Y0049706D02*
X0254333Y0045702D01*
X0254333Y0041765D02*
X0254333Y0037762D01*
X0254333Y0033825D02*
X0254333Y0029821D01*
X0254333Y0025884D02*
X0254333Y0021881D01*
X0254333Y0017944D02*
X0254333Y0013940D01*
X0254333Y0010003D02*
X0254333Y0006000D01*
X0426333Y0005503D02*
X0426333Y0001500D01*
X0426333Y0009440D02*
X0426333Y0013444D01*
X0426333Y0017381D02*
X0426333Y0021384D01*
X0426333Y0025321D02*
X0426333Y0029325D01*
X0426333Y0033262D02*
X0426333Y0037265D01*
X0426333Y0041202D02*
X0426333Y0045206D01*
X0426333Y0049143D02*
X0426333Y0053146D01*
X0426333Y0057083D02*
X0426333Y0061086D01*
X0426333Y0065023D02*
X0426333Y0069027D01*
X0426333Y0072964D02*
X0426333Y0076967D01*
X0426333Y0080904D02*
X0426333Y0084908D01*
X0426333Y0088845D02*
X0426333Y0092848D01*
X0426333Y0096785D02*
X0426333Y0100789D01*
X0426333Y0104726D02*
X0426333Y0108729D01*
X0426333Y0112666D02*
X0426333Y0116670D01*
X0426333Y0120607D02*
X0426333Y0124610D01*
X0426333Y0128547D02*
X0426333Y0132550D01*
X0426333Y0136487D02*
X0426333Y0140491D01*
X0426333Y0144428D02*
X0426333Y0148431D01*
X0426333Y0152368D02*
X0426333Y0156372D01*
X0426333Y0160309D02*
X0426333Y0164312D01*
X0426333Y0168249D02*
X0426333Y0172253D01*
X0426333Y0176190D02*
X0426333Y0180193D01*
X0426333Y0184130D02*
X0426333Y0188133D01*
X0426333Y0192070D02*
X0426333Y0196074D01*
X0426333Y0200011D02*
X0426333Y0204014D01*
X0426333Y0207951D02*
X0426333Y0211955D01*
X0426333Y0215892D02*
X0426333Y0219895D01*
X0428224Y0217000D02*
X0424228Y0217000D01*
X0420291Y0217000D02*
X0416296Y0217000D01*
X0412359Y0217000D02*
X0408363Y0217000D01*
X0404426Y0217000D02*
X0400431Y0217000D01*
X0396494Y0217000D02*
X0392498Y0217000D01*
X0388561Y0217000D02*
X0384566Y0217000D01*
X0380629Y0217000D02*
X0376633Y0217000D01*
X0372696Y0217000D02*
X0368701Y0217000D01*
X0364764Y0217000D02*
X0360768Y0217000D01*
X0356831Y0217000D02*
X0352836Y0217000D01*
X0348899Y0217000D02*
X0344903Y0217000D01*
X0340966Y0217000D02*
X0336971Y0217000D01*
X0333034Y0217000D02*
X0329038Y0217000D01*
X0325101Y0217000D02*
X0321106Y0217000D01*
X0317169Y0217000D02*
X0313173Y0217000D01*
X0309236Y0217000D02*
X0305241Y0217000D01*
X0301304Y0217000D02*
X0297308Y0217000D01*
X0293371Y0217000D02*
X0289376Y0217000D01*
X0285439Y0217000D02*
X0281443Y0217000D01*
X0277506Y0217000D02*
X0273511Y0217000D01*
X0269574Y0217000D02*
X0265578Y0217000D01*
X0261641Y0217000D02*
X0257646Y0217000D01*
X0254333Y0220392D02*
X0254333Y0224395D01*
X0254333Y0228332D02*
X0254333Y0232336D01*
X0254333Y0236273D02*
X0254333Y0240276D01*
X0254333Y0244213D02*
X0254333Y0248216D01*
X0254333Y0252153D02*
X0254333Y0256157D01*
X0254333Y0260094D02*
X0254333Y0264097D01*
X0254333Y0268034D02*
X0254333Y0272038D01*
X0254333Y0275975D02*
X0254333Y0279978D01*
X0254333Y0283915D02*
X0254333Y0287919D01*
X0254333Y0291856D02*
X0254333Y0295859D01*
X0254333Y0299796D02*
X0254333Y0303800D01*
X0254333Y0307737D02*
X0254333Y0311740D01*
X0254333Y0315677D02*
X0254333Y0319680D01*
X0254333Y0323617D02*
X0254333Y0327621D01*
X0254333Y0331558D02*
X0254333Y0335561D01*
X0254333Y0339498D02*
X0254333Y0343502D01*
X0254333Y0347439D02*
X0254333Y0351442D01*
X0254333Y0355379D02*
X0254333Y0359383D01*
X0252396Y0359000D02*
X0248427Y0359000D01*
X0244490Y0359000D02*
X0240521Y0359000D01*
X0236584Y0359000D02*
X0232614Y0359000D01*
X0228677Y0359000D02*
X0224708Y0359000D01*
X0220771Y0359000D02*
X0216802Y0359000D01*
X0212865Y0359000D02*
X0208896Y0359000D01*
X0204959Y0359000D02*
X0200989Y0359000D01*
X0197052Y0359000D02*
X0193083Y0359000D01*
X0189146Y0359000D02*
X0185177Y0359000D01*
X0181240Y0359000D02*
X0177271Y0359000D01*
X0173334Y0359000D02*
X0169364Y0359000D01*
X0165427Y0359000D02*
X0161458Y0359000D01*
X0157521Y0359000D02*
X0153552Y0359000D01*
X0149615Y0359000D02*
X0145646Y0359000D01*
X0141709Y0359000D02*
X0137739Y0359000D01*
X0133802Y0359000D02*
X0129833Y0359000D01*
X0125896Y0359000D02*
X0121927Y0359000D01*
X0117990Y0359000D02*
X0114021Y0359000D01*
X0110084Y0359000D02*
X0106115Y0359000D01*
X0102177Y0359000D02*
X0098208Y0359000D01*
X0094271Y0359000D02*
X0090302Y0359000D01*
X0086365Y0359000D02*
X0082396Y0359000D01*
X0078459Y0359000D02*
X0074490Y0359000D01*
X0070553Y0359000D02*
X0066583Y0359000D01*
X0062646Y0359000D02*
X0058677Y0359000D01*
X0054740Y0359000D02*
X0050771Y0359000D01*
X0046834Y0359000D02*
X0042865Y0359000D01*
X0038928Y0359000D02*
X0034958Y0359000D01*
X0031021Y0359000D02*
X0027052Y0359000D01*
X0023115Y0359000D02*
X0019146Y0359000D01*
X0015209Y0359000D02*
X0011240Y0359000D01*
X0007303Y0359000D02*
X0003333Y0359000D01*
X0060833Y0501000D02*
X0064853Y0501000D01*
X0068790Y0501000D02*
X0072810Y0501000D01*
X0076747Y0501000D02*
X0080767Y0501000D01*
X0084704Y0501000D02*
X0088724Y0501000D01*
X0092661Y0501000D02*
X0096681Y0501000D01*
X0100618Y0501000D02*
X0104637Y0501000D01*
X0108574Y0501000D02*
X0112594Y0501000D01*
X0116531Y0501000D02*
X0120551Y0501000D01*
X0124488Y0501000D02*
X0128508Y0501000D01*
X0132445Y0501000D02*
X0136465Y0501000D01*
X0140402Y0501000D02*
X0144422Y0501000D01*
X0148359Y0501000D02*
X0152379Y0501000D01*
X0156316Y0501000D02*
X0160335Y0501000D01*
X0164273Y0501000D02*
X0168292Y0501000D01*
X0172229Y0501000D02*
X0176249Y0501000D01*
X0180186Y0501000D02*
X0184206Y0501000D01*
X0188143Y0501000D02*
X0192163Y0501000D01*
X0196100Y0501000D02*
X0200120Y0501000D01*
X0204057Y0501000D02*
X0208077Y0501000D01*
X0212014Y0501000D02*
X0216034Y0501000D01*
X0219971Y0501000D02*
X0223990Y0501000D01*
X0227927Y0501000D02*
X0231947Y0501000D01*
X0235884Y0501000D02*
X0239904Y0501000D01*
X0243841Y0501000D02*
X0247861Y0501000D01*
X0251798Y0501000D02*
X0255818Y0501000D01*
X0254333Y0502310D02*
X0254333Y0498307D01*
X0254333Y0494370D02*
X0254333Y0490367D01*
X0254333Y0486430D02*
X0254333Y0482426D01*
X0254333Y0478489D02*
X0254333Y0474486D01*
X0254333Y0470549D02*
X0254333Y0466545D01*
X0254333Y0462608D02*
X0254333Y0458605D01*
X0254333Y0454668D02*
X0254333Y0450664D01*
X0254333Y0446727D02*
X0254333Y0442724D01*
X0254333Y0438787D02*
X0254333Y0434784D01*
X0254333Y0430847D02*
X0254333Y0426843D01*
X0254333Y0422906D02*
X0254333Y0418903D01*
X0254333Y0414966D02*
X0254333Y0410962D01*
X0254333Y0407025D02*
X0254333Y0403022D01*
X0254333Y0399085D02*
X0254333Y0395081D01*
X0254333Y0391144D02*
X0254333Y0387141D01*
X0254333Y0383204D02*
X0254333Y0379200D01*
X0254333Y0375263D02*
X0254333Y0371260D01*
X0254333Y0367323D02*
X0254333Y0363320D01*
X0256333Y0359000D02*
X0260302Y0359000D01*
X0264239Y0359000D02*
X0268209Y0359000D01*
X0272146Y0359000D02*
X0276115Y0359000D01*
X0280052Y0359000D02*
X0284021Y0359000D01*
X0287958Y0359000D02*
X0291927Y0359000D01*
X0295864Y0359000D02*
X0299834Y0359000D01*
X0303771Y0359000D02*
X0307740Y0359000D01*
X0311677Y0359000D02*
X0315646Y0359000D01*
X0319583Y0359000D02*
X0323552Y0359000D01*
X0327489Y0359000D02*
X0331459Y0359000D01*
X0335396Y0359000D02*
X0339365Y0359000D01*
X0343302Y0359000D02*
X0347271Y0359000D01*
X0351208Y0359000D02*
X0355177Y0359000D01*
X0359114Y0359000D02*
X0363084Y0359000D01*
X0367021Y0359000D02*
X0370990Y0359000D01*
X0374927Y0359000D02*
X0378896Y0359000D01*
X0382833Y0359000D02*
X0386802Y0359000D01*
X0390739Y0359000D02*
X0394709Y0359000D01*
X0398646Y0359000D02*
X0402615Y0359000D01*
X0406552Y0359000D02*
X0410521Y0359000D01*
X0414458Y0359000D02*
X0418427Y0359000D01*
X0422364Y0359000D02*
X0426334Y0359000D01*
X0426333Y0358820D02*
X0426333Y0362823D01*
X0426333Y0366760D02*
X0426333Y0370763D01*
X0426333Y0374700D02*
X0426333Y0378704D01*
X0426333Y0382641D02*
X0426333Y0386644D01*
X0426333Y0390581D02*
X0426333Y0394585D01*
X0426333Y0398522D02*
X0426333Y0402525D01*
X0426333Y0406462D02*
X0426333Y0410466D01*
X0426333Y0414403D02*
X0426333Y0418406D01*
X0426333Y0422343D02*
X0426333Y0426347D01*
X0426333Y0430284D02*
X0426333Y0434287D01*
X0426333Y0438224D02*
X0426333Y0442227D01*
X0426333Y0446164D02*
X0426333Y0450168D01*
X0426333Y0454105D02*
X0426333Y0458108D01*
X0426333Y0462045D02*
X0426333Y0466049D01*
X0426333Y0469986D02*
X0426333Y0473989D01*
X0426333Y0477926D02*
X0426333Y0481930D01*
X0426333Y0485867D02*
X0426333Y0489870D01*
X0426333Y0493807D02*
X0426333Y0497810D01*
X0426849Y0501000D02*
X0430869Y0501000D01*
X0434806Y0501000D02*
X0438826Y0501000D01*
X0442763Y0501000D02*
X0446782Y0501000D01*
X0450719Y0501000D02*
X0454739Y0501000D01*
X0458676Y0501000D02*
X0462696Y0501000D01*
X0466633Y0501000D02*
X0470653Y0501000D01*
X0474590Y0501000D02*
X0478610Y0501000D01*
X0482547Y0501000D02*
X0486567Y0501000D01*
X0490504Y0501000D02*
X0494524Y0501000D01*
X0498461Y0501000D02*
X0502480Y0501000D01*
X0506417Y0501000D02*
X0510437Y0501000D01*
X0514374Y0501000D02*
X0518394Y0501000D01*
X0522331Y0501000D02*
X0526351Y0501000D01*
X0530288Y0501000D02*
X0534308Y0501000D01*
X0538245Y0501000D02*
X0542265Y0501000D01*
X0546202Y0501000D02*
X0550222Y0501000D01*
X0554159Y0501000D02*
X0558178Y0501000D01*
X0562115Y0501000D02*
X0566135Y0501000D01*
X0570072Y0501000D02*
X0574092Y0501000D01*
X0578029Y0501000D02*
X0582049Y0501000D01*
X0585986Y0501000D02*
X0590006Y0501000D01*
X0593943Y0501000D02*
X0597963Y0501000D01*
X0601900Y0501000D02*
X0605920Y0501000D01*
X0609857Y0501000D02*
X0613876Y0501000D01*
X0617813Y0501000D02*
X0621833Y0501000D01*
X0620020Y0359000D02*
X0623990Y0359000D01*
X0627927Y0359000D02*
X0631896Y0359000D01*
X0635833Y0359000D02*
X0639802Y0359000D01*
X0643739Y0359000D02*
X0647708Y0359000D01*
X0651645Y0359000D02*
X0655615Y0359000D01*
X0659552Y0359000D02*
X0663521Y0359000D01*
X0667458Y0359000D02*
X0671427Y0359000D01*
X0675364Y0359000D02*
X0679333Y0359000D01*
X0616083Y0359000D02*
X0612114Y0359000D01*
X0608177Y0359000D02*
X0604208Y0359000D01*
X0600271Y0359000D02*
X0596302Y0359000D01*
X0592365Y0359000D02*
X0588395Y0359000D01*
X0584458Y0359000D02*
X0580489Y0359000D01*
X0576552Y0359000D02*
X0572583Y0359000D01*
X0568646Y0359000D02*
X0564677Y0359000D01*
X0560740Y0359000D02*
X0556770Y0359000D01*
X0552833Y0359000D02*
X0548864Y0359000D01*
X0544927Y0359000D02*
X0540958Y0359000D01*
X0537021Y0359000D02*
X0533052Y0359000D01*
X0529115Y0359000D02*
X0525145Y0359000D01*
X0521208Y0359000D02*
X0517239Y0359000D01*
X0513302Y0359000D02*
X0509333Y0359000D01*
X0505396Y0359000D02*
X0501427Y0359000D01*
X0497490Y0359000D02*
X0493520Y0359000D01*
X0489583Y0359000D02*
X0485614Y0359000D01*
X0481677Y0359000D02*
X0477708Y0359000D01*
X0473771Y0359000D02*
X0469802Y0359000D01*
X0465865Y0359000D02*
X0461895Y0359000D01*
X0457958Y0359000D02*
X0453989Y0359000D01*
X0450052Y0359000D02*
X0446083Y0359000D01*
X0442146Y0359000D02*
X0438177Y0359000D01*
X0434240Y0359000D02*
X0430271Y0359000D01*
X0426333Y0354883D02*
X0426333Y0350879D01*
X0426333Y0346942D02*
X0426333Y0342939D01*
X0426333Y0339002D02*
X0426333Y0334998D01*
X0426333Y0331061D02*
X0426333Y0327058D01*
X0426333Y0323121D02*
X0426333Y0319117D01*
X0426333Y0315180D02*
X0426333Y0311177D01*
X0426333Y0307240D02*
X0426333Y0303237D01*
X0426333Y0299300D02*
X0426333Y0295296D01*
X0426333Y0291359D02*
X0426333Y0287356D01*
X0426333Y0283419D02*
X0426333Y0279415D01*
X0426333Y0275478D02*
X0426333Y0271475D01*
X0426333Y0267538D02*
X0426333Y0263534D01*
X0426333Y0259597D02*
X0426333Y0255594D01*
X0426333Y0251657D02*
X0426333Y0247653D01*
X0426333Y0243716D02*
X0426333Y0239713D01*
X0426333Y0235776D02*
X0426333Y0231773D01*
X0426333Y0227836D02*
X0426333Y0223832D01*
X0432161Y0217000D02*
X0436156Y0217000D01*
X0440093Y0217000D02*
X0444088Y0217000D01*
X0448026Y0217000D02*
X0452021Y0217000D01*
X0455958Y0217000D02*
X0459953Y0217000D01*
X0463890Y0217000D02*
X0467886Y0217000D01*
X0471823Y0217000D02*
X0475818Y0217000D01*
X0479755Y0217000D02*
X0483751Y0217000D01*
X0487688Y0217000D02*
X0491683Y0217000D01*
X0495620Y0217000D02*
X0499616Y0217000D01*
X0503553Y0217000D02*
X0507548Y0217000D01*
X0511485Y0217000D02*
X0515481Y0217000D01*
X0519418Y0217000D02*
X0523413Y0217000D01*
X0527350Y0217000D02*
X0531346Y0217000D01*
X0535283Y0217000D02*
X0539278Y0217000D01*
X0543215Y0217000D02*
X0547211Y0217000D01*
X0551148Y0217000D02*
X0555143Y0217000D01*
X0559080Y0217000D02*
X0563076Y0217000D01*
X0567013Y0217000D02*
X0571008Y0217000D01*
X0574945Y0217000D02*
X0578941Y0217000D01*
X0582878Y0217000D02*
X0586873Y0217000D01*
X0590810Y0217000D02*
X0594806Y0217000D01*
X0598743Y0217000D02*
X0602738Y0217000D01*
X0606675Y0217000D02*
X0610671Y0217000D01*
X0614608Y0217000D02*
X0618603Y0217000D01*
X0622540Y0217000D02*
X0626536Y0217000D01*
X0630473Y0217000D02*
X0634468Y0217000D01*
X0638405Y0217000D02*
X0642401Y0217000D01*
X0646338Y0217000D02*
X0650333Y0217000D01*
X0426333Y0501747D02*
X0426333Y0505751D01*
X0426333Y0509688D02*
X0426333Y0513691D01*
X0426333Y0517628D02*
X0426333Y0521632D01*
X0426333Y0525569D02*
X0426333Y0529572D01*
X0426333Y0533509D02*
X0426333Y0537513D01*
X0426333Y0541450D02*
X0426333Y0545453D01*
X0426333Y0549390D02*
X0426333Y0553393D01*
X0426333Y0557330D02*
X0426333Y0561334D01*
X0426333Y0565271D02*
X0426333Y0569274D01*
X0426333Y0573211D02*
X0426333Y0577215D01*
X0426333Y0581152D02*
X0426333Y0585155D01*
X0426333Y0589092D02*
X0426333Y0593096D01*
X0426333Y0597033D02*
X0426333Y0601036D01*
X0426333Y0604973D02*
X0426333Y0608977D01*
X0426333Y0612914D02*
X0426333Y0616917D01*
X0426333Y0620854D02*
X0426333Y0624857D01*
X0426333Y0628794D02*
X0426333Y0632798D01*
X0426333Y0636735D02*
X0426333Y0640738D01*
X0426333Y0644675D02*
X0426333Y0648679D01*
X0426333Y0652616D02*
X0426333Y0656619D01*
X0426333Y0660556D02*
X0426333Y0664560D01*
X0426333Y0668497D02*
X0426333Y0672500D01*
X0254333Y0672997D02*
X0254333Y0677000D01*
X0254333Y0669060D02*
X0254333Y0665056D01*
X0254333Y0661119D02*
X0254333Y0657116D01*
X0254333Y0653179D02*
X0254333Y0649175D01*
X0254333Y0645238D02*
X0254333Y0641235D01*
X0254333Y0637298D02*
X0254333Y0633294D01*
X0254333Y0629357D02*
X0254333Y0625354D01*
X0254333Y0621417D02*
X0254333Y0617414D01*
X0254333Y0613477D02*
X0254333Y0609473D01*
X0254333Y0605536D02*
X0254333Y0601533D01*
X0254333Y0597596D02*
X0254333Y0593592D01*
X0254333Y0589655D02*
X0254333Y0585652D01*
X0254333Y0581715D02*
X0254333Y0577711D01*
X0254333Y0573774D02*
X0254333Y0569771D01*
X0254333Y0565834D02*
X0254333Y0561830D01*
X0254333Y0557893D02*
X0254333Y0553890D01*
X0254333Y0549953D02*
X0254333Y0545950D01*
X0254333Y0542013D02*
X0254333Y0538009D01*
X0254333Y0534072D02*
X0254333Y0530069D01*
X0254333Y0526132D02*
X0254333Y0522128D01*
X0254333Y0518191D02*
X0254333Y0514188D01*
X0254333Y0510251D02*
X0254333Y0506247D01*
X0259755Y0501000D02*
X0263775Y0501000D01*
X0267712Y0501000D02*
X0271732Y0501000D01*
X0275669Y0501000D02*
X0279688Y0501000D01*
X0283625Y0501000D02*
X0287645Y0501000D01*
X0291582Y0501000D02*
X0295602Y0501000D01*
X0299539Y0501000D02*
X0303559Y0501000D01*
X0307496Y0501000D02*
X0311516Y0501000D01*
X0315453Y0501000D02*
X0319473Y0501000D01*
X0323410Y0501000D02*
X0327430Y0501000D01*
X0331367Y0501000D02*
X0335386Y0501000D01*
X0339323Y0501000D02*
X0343343Y0501000D01*
X0347280Y0501000D02*
X0351300Y0501000D01*
X0355237Y0501000D02*
X0359257Y0501000D01*
X0363194Y0501000D02*
X0367214Y0501000D01*
X0371151Y0501000D02*
X0375171Y0501000D01*
X0379108Y0501000D02*
X0383128Y0501000D01*
X0387065Y0501000D02*
X0391084Y0501000D01*
X0395021Y0501000D02*
X0399041Y0501000D01*
X0402978Y0501000D02*
X0406998Y0501000D01*
X0410935Y0501000D02*
X0414955Y0501000D01*
X0418892Y0501000D02*
X0422912Y0501000D01*
D11*
X0003883Y0050487D02*
X0003883Y0046550D01*
X0003883Y0049503D02*
X0007820Y0049503D01*
X0007820Y0050487D02*
X0007820Y0046550D01*
X0010329Y0047534D02*
X0011313Y0046550D01*
X0014266Y0046550D01*
X0014266Y0052455D01*
X0014266Y0050487D02*
X0011313Y0050487D01*
X0010329Y0049503D01*
X0010329Y0047534D01*
X0007820Y0050487D02*
X0005852Y0052455D01*
X0003883Y0050487D01*
X0016774Y0049503D02*
X0017758Y0050487D01*
X0020711Y0050487D01*
X0020711Y0052455D02*
X0020711Y0046550D01*
X0017758Y0046550D01*
X0016774Y0047534D01*
X0016774Y0049503D01*
X0023220Y0050487D02*
X0024204Y0050487D01*
X0024204Y0046550D01*
X0023220Y0046550D02*
X0025188Y0046550D01*
X0027517Y0046550D02*
X0027517Y0050487D01*
X0030469Y0050487D01*
X0031454Y0049503D01*
X0031454Y0046550D01*
X0033962Y0047534D02*
X0034946Y0046550D01*
X0037899Y0046550D01*
X0037899Y0045566D02*
X0037899Y0050487D01*
X0034946Y0050487D01*
X0033962Y0049503D01*
X0033962Y0047534D01*
X0035931Y0044582D02*
X0036915Y0044582D01*
X0037899Y0045566D01*
X0046853Y0049503D02*
X0048822Y0049503D01*
X0047837Y0051471D02*
X0048822Y0052455D01*
X0047837Y0051471D02*
X0047837Y0046550D01*
X0051150Y0046550D02*
X0051150Y0050487D01*
X0053119Y0050487D02*
X0054103Y0050487D01*
X0053119Y0050487D02*
X0051150Y0048518D01*
X0056522Y0047534D02*
X0057506Y0046550D01*
X0060458Y0046550D01*
X0060458Y0049503D01*
X0059474Y0050487D01*
X0057506Y0050487D01*
X0057506Y0048518D02*
X0060458Y0048518D01*
X0057506Y0048518D02*
X0056522Y0047534D01*
X0062967Y0046550D02*
X0062967Y0050487D01*
X0063951Y0050487D01*
X0064935Y0049503D01*
X0065920Y0050487D01*
X0066904Y0049503D01*
X0066904Y0046550D01*
X0064935Y0046550D02*
X0064935Y0049503D01*
X0069413Y0049503D02*
X0070397Y0050487D01*
X0072365Y0050487D01*
X0073349Y0049503D01*
X0073349Y0048518D01*
X0069413Y0048518D01*
X0069413Y0047534D02*
X0069413Y0049503D01*
X0069413Y0047534D02*
X0070397Y0046550D01*
X0072365Y0046550D01*
X0082304Y0047534D02*
X0083288Y0048518D01*
X0086240Y0048518D01*
X0086240Y0049503D02*
X0086240Y0046550D01*
X0083288Y0046550D01*
X0082304Y0047534D01*
X0083288Y0050487D02*
X0085256Y0050487D01*
X0086240Y0049503D01*
X0088749Y0050487D02*
X0088749Y0046550D01*
X0088749Y0048518D02*
X0090717Y0050487D01*
X0091702Y0050487D01*
X0094120Y0049503D02*
X0094120Y0047534D01*
X0095104Y0046550D01*
X0097073Y0046550D01*
X0098057Y0047534D01*
X0098057Y0049503D01*
X0097073Y0050487D01*
X0095104Y0050487D01*
X0094120Y0049503D01*
X0100566Y0050487D02*
X0100566Y0047534D01*
X0101550Y0046550D01*
X0104502Y0046550D01*
X0104502Y0050487D01*
X0107011Y0050487D02*
X0109964Y0050487D01*
X0110948Y0049503D01*
X0110948Y0046550D01*
X0113457Y0047534D02*
X0113457Y0049503D01*
X0114441Y0050487D01*
X0117393Y0050487D01*
X0117393Y0052455D02*
X0117393Y0046550D01*
X0114441Y0046550D01*
X0113457Y0047534D01*
X0107011Y0046550D02*
X0107011Y0050487D01*
X0126348Y0050487D02*
X0126348Y0044582D01*
X0126348Y0046550D02*
X0129300Y0046550D01*
X0130284Y0047534D01*
X0130284Y0049503D01*
X0129300Y0050487D01*
X0126348Y0050487D01*
X0132793Y0047534D02*
X0133777Y0046550D01*
X0136730Y0046550D01*
X0136730Y0049503D01*
X0135746Y0050487D01*
X0133777Y0050487D01*
X0133777Y0048518D02*
X0136730Y0048518D01*
X0133777Y0048518D02*
X0132793Y0047534D01*
X0139239Y0046550D02*
X0139239Y0050487D01*
X0142191Y0050487D01*
X0143175Y0049503D01*
X0143175Y0046550D01*
X0145684Y0047534D02*
X0145684Y0049503D01*
X0146668Y0050487D01*
X0148637Y0050487D01*
X0149621Y0049503D01*
X0149621Y0048518D01*
X0145684Y0048518D01*
X0145684Y0047534D02*
X0146668Y0046550D01*
X0148637Y0046550D01*
X0152130Y0046550D02*
X0154098Y0046550D01*
X0153114Y0046550D02*
X0153114Y0052455D01*
X0152130Y0052455D01*
X0162872Y0050487D02*
X0163856Y0050487D01*
X0163856Y0046550D01*
X0162872Y0046550D02*
X0164841Y0046550D01*
X0167169Y0046550D02*
X0170122Y0046550D01*
X0171106Y0047534D01*
X0170122Y0048518D01*
X0168153Y0048518D01*
X0167169Y0049503D01*
X0168153Y0050487D01*
X0171106Y0050487D01*
X0163856Y0052455D02*
X0163856Y0053439D01*
X0180060Y0047534D02*
X0181044Y0048518D01*
X0183997Y0048518D01*
X0183997Y0049503D02*
X0183997Y0046550D01*
X0181044Y0046550D01*
X0180060Y0047534D01*
X0181044Y0050487D02*
X0183013Y0050487D01*
X0183997Y0049503D01*
X0186506Y0049503D02*
X0186506Y0047534D01*
X0187490Y0046550D01*
X0190442Y0046550D01*
X0192951Y0047534D02*
X0193935Y0046550D01*
X0196888Y0046550D01*
X0199397Y0047534D02*
X0200381Y0046550D01*
X0202349Y0046550D01*
X0203333Y0048518D02*
X0199397Y0048518D01*
X0199397Y0047534D02*
X0199397Y0049503D01*
X0200381Y0050487D01*
X0202349Y0050487D01*
X0203333Y0049503D01*
X0203333Y0048518D01*
X0205842Y0046550D02*
X0208795Y0046550D01*
X0209779Y0047534D01*
X0209779Y0049503D01*
X0208795Y0050487D01*
X0205842Y0050487D01*
X0205842Y0044582D01*
X0213272Y0047534D02*
X0214256Y0046550D01*
X0213272Y0047534D02*
X0213272Y0051471D01*
X0212288Y0050487D02*
X0214256Y0050487D01*
X0217569Y0050487D02*
X0219537Y0050487D01*
X0220521Y0049503D01*
X0220521Y0046550D01*
X0217569Y0046550D01*
X0216585Y0047534D01*
X0217569Y0048518D01*
X0220521Y0048518D01*
X0223030Y0046550D02*
X0225983Y0046550D01*
X0226967Y0047534D01*
X0226967Y0049503D01*
X0225983Y0050487D01*
X0223030Y0050487D01*
X0223030Y0052455D02*
X0223030Y0046550D01*
X0229476Y0046550D02*
X0231444Y0046550D01*
X0230460Y0046550D02*
X0230460Y0052455D01*
X0229476Y0052455D01*
X0233773Y0049503D02*
X0234757Y0050487D01*
X0236725Y0050487D01*
X0237709Y0049503D01*
X0237709Y0048518D01*
X0233773Y0048518D01*
X0233773Y0047534D02*
X0233773Y0049503D01*
X0233773Y0047534D02*
X0234757Y0046550D01*
X0236725Y0046550D01*
X0196888Y0050487D02*
X0193935Y0050487D01*
X0192951Y0049503D01*
X0192951Y0047534D01*
X0190442Y0050487D02*
X0187490Y0050487D01*
X0186506Y0049503D01*
X0024204Y0052455D02*
X0024204Y0053439D01*
X0040852Y0506550D02*
X0042820Y0508518D01*
X0042820Y0512455D01*
X0045329Y0511471D02*
X0045329Y0510487D01*
X0046313Y0509503D01*
X0048281Y0509503D01*
X0049266Y0508518D01*
X0049266Y0507534D01*
X0048281Y0506550D01*
X0046313Y0506550D01*
X0045329Y0507534D01*
X0045329Y0511471D02*
X0046313Y0512455D01*
X0048281Y0512455D01*
X0049266Y0511471D01*
X0051774Y0509503D02*
X0051774Y0507534D01*
X0052758Y0506550D01*
X0055711Y0506550D01*
X0058220Y0507534D02*
X0059204Y0506550D01*
X0061172Y0506550D01*
X0062157Y0507534D01*
X0062157Y0509503D01*
X0061172Y0510487D01*
X0059204Y0510487D01*
X0058220Y0509503D01*
X0058220Y0507534D01*
X0055711Y0510487D02*
X0052758Y0510487D01*
X0051774Y0509503D01*
X0040852Y0506550D02*
X0038883Y0508518D01*
X0038883Y0512455D01*
X0064665Y0510487D02*
X0064665Y0506550D01*
X0064665Y0508518D02*
X0066634Y0510487D01*
X0067618Y0510487D01*
X0070037Y0509503D02*
X0070037Y0507534D01*
X0071021Y0506550D01*
X0072989Y0506550D01*
X0073973Y0508518D02*
X0070037Y0508518D01*
X0070037Y0509503D02*
X0071021Y0510487D01*
X0072989Y0510487D01*
X0073973Y0509503D01*
X0073973Y0508518D01*
M02*
