%
M48
M72
T01C0.0200
T02C0.0400
T03C0.1300
%
T01
X10333Y10100
X10333Y14100
X14333Y20600
X10333Y24300
X10333Y28300
X14333Y34800
X10333Y38500
X10333Y42500
X14333Y49000
X10333Y52700
X10333Y56700
X14333Y63200
X19833Y59200
X20833Y60200
X20833Y58200
X20833Y56200
X19833Y55200
X22833Y53200
X27533Y52700
X27533Y56700
X22833Y58200
X31533Y63200
X37033Y59200
X38033Y60200
X38033Y58200
X38033Y56200
X37033Y55200
X40033Y53200
X44733Y52700
X44733Y56700
X40033Y58200
X48733Y63200
X54233Y59200
X55233Y58200
X55233Y56200
X54233Y55200
X57233Y53200
X57233Y58200
X55233Y60200
X48733Y49000
X54233Y45000
X55233Y44000
X55233Y42000
X54233Y41000
X57233Y39000
X57233Y44000
X55233Y46000
X44733Y42500
X44733Y38500
X48733Y34800
X54233Y30800
X55233Y29800
X55233Y27800
X54233Y26800
X57233Y24800
X57233Y29800
X55233Y31800
X44733Y28300
X44733Y24300
X48733Y20600
X54233Y16600
X55233Y15600
X55233Y13600
X54233Y12600
X57233Y10600
X57233Y15600
X55233Y17600
X44733Y14100
X44733Y10100
X40033Y10600
X37033Y12600
X38033Y13600
X38033Y15600
X37033Y16600
X38033Y17600
X40033Y15600
X31533Y20600
X27533Y24300
X27533Y28300
X22833Y29800
X20833Y29800
X19833Y30800
X20833Y31800
X20833Y27800
X19833Y26800
X22833Y24800
X20833Y17600
X19833Y16600
X20833Y15600
X20833Y13600
X19833Y12600
X22833Y10600
X27533Y10100
X27533Y14100
X22833Y15600
X37033Y26800
X38033Y27800
X38033Y29800
X37033Y30800
X38033Y31800
X40033Y29800
X40033Y24800
X31533Y34800
X27533Y38500
X27533Y42500
X22833Y44000
X20833Y44000
X19833Y45000
X20833Y46000
X20833Y42000
X19833Y41000
X22833Y39000
X31533Y49000
X37033Y45000
X38033Y46000
X38033Y44000
X38033Y42000
X37033Y41000
X40033Y39000
X40033Y44000
T02
X38533Y43500
X37533Y43500
X37533Y44500
X38533Y44500
X38533Y45500
X37533Y45500
X37533Y46500
X38533Y46500
X38533Y47500
X37533Y47500
X37533Y48500
X38533Y48500
X36533Y48000
X35533Y48000
X34533Y48000
X33533Y48000
X32533Y48000
X31533Y48000
X30533Y47500
X29533Y47500
X29533Y48500
X30533Y48500
X30533Y46500
X29533Y46500
X29533Y45500
X30533Y45500
X30533Y44500
X29533Y44500
X29533Y43500
X30533Y43500
X30533Y42500
X29533Y42500
X29533Y41500
X30533Y41500
X30533Y40500
X29533Y40500
X29533Y39500
X30533Y39500
X30533Y38500
X29533Y38500
X29533Y37500
X30533Y37500
X31533Y37500
X31533Y38500
X32533Y38500
X32533Y37500
X33533Y38500
X34533Y38500
X34533Y39500
X33533Y39500
X33533Y40500
X34533Y40500
X34533Y41500
X33533Y41500
X33533Y42500
X34533Y42500
X34533Y43500
X33533Y43500
X33533Y44500
X34533Y44500
X34533Y45500
X33533Y45500
X33533Y46500
X34533Y46500
X35533Y46500
X35533Y45500
X36533Y45500
X36533Y46500
X36533Y44500
X35533Y44500
X35533Y43500
X36533Y43500
X36533Y42500
X35533Y42500
X35533Y41500
X36533Y41500
X36533Y40500
X35533Y40500
X35533Y39500
X36533Y39500
X36533Y38500
X35533Y38500
X37533Y38500
X37533Y37500
X38533Y37500
X38533Y38500
X38533Y39500
X37533Y39500
X37533Y40500
X38533Y40500
X38533Y41500
X37533Y41500
X37533Y42500
X38533Y42500
X32533Y42500
X31533Y42500
X31533Y41500
X32533Y41500
X32533Y40500
X31533Y40500
X31533Y39500
X32533Y39500
X32533Y43500
X31533Y43500
X31533Y44500
X32533Y44500
X32533Y45500
X31533Y45500
X31533Y46500
X32533Y46500
X32533Y49500
X33533Y49500
X34533Y49500
X35533Y49500
X37533Y51700
X37533Y52700
X38533Y52700
X38533Y51700
X38533Y53700
X37533Y53700
X37533Y54700
X38533Y54700
X38533Y55700
X37533Y55700
X37533Y56700
X38533Y56700
X38533Y57700
X37533Y57700
X37533Y58700
X37533Y59700
X38533Y59700
X38533Y58700
X36533Y58700
X35533Y58700
X35533Y57700
X36533Y57700
X36533Y56700
X35533Y56700
X35533Y55700
X36533Y55700
X36533Y54700
X35533Y54700
X35533Y53700
X36533Y53700
X36533Y52700
X35533Y52700
X34533Y52700
X33533Y52700
X32533Y52700
X31533Y52700
X31533Y51700
X32533Y51700
X30533Y51700
X29533Y51700
X29533Y52700
X30533Y52700
X30533Y53700
X29533Y53700
X29533Y54700
X30533Y54700
X30533Y55700
X29533Y55700
X29533Y56700
X30533Y56700
X30533Y57700
X29533Y57700
X29533Y58700
X29533Y59700
X30533Y59700
X30533Y58700
X31533Y58700
X31533Y57700
X32533Y57700
X32533Y58700
X32533Y59700
X31533Y59700
X31533Y60700
X32533Y60700
X33533Y60700
X34533Y60700
X34533Y59700
X33533Y59700
X33533Y58700
X33533Y57700
X34533Y57700
X34533Y58700
X35533Y59700
X36533Y59700
X36533Y60700
X35533Y60700
X35533Y62200
X36533Y62200
X37533Y61700
X37533Y60700
X38533Y60700
X38533Y61700
X38533Y62700
X37533Y62700
X35533Y63700
X34533Y63700
X33533Y63700
X32533Y63700
X32533Y62200
X31533Y62200
X30533Y61700
X29533Y61700
X29533Y60700
X30533Y60700
X30533Y62700
X29533Y62700
X33533Y62200
X34533Y62200
X34533Y56700
X33533Y56700
X33533Y55700
X34533Y55700
X34533Y54700
X33533Y54700
X33533Y53700
X34533Y53700
X32533Y53700
X31533Y53700
X31533Y54700
X32533Y54700
X32533Y55700
X31533Y55700
X31533Y56700
X32533Y56700
X21333Y56700
X21333Y55700
X20333Y55700
X19333Y55700
X19333Y56700
X20333Y56700
X20333Y57700
X19333Y57700
X19333Y58700
X19333Y59700
X20333Y59700
X20333Y58700
X21333Y58700
X21333Y57700
X21333Y59700
X21333Y60700
X21333Y61700
X20333Y61700
X20333Y60700
X19333Y60700
X18333Y60700
X17333Y60700
X16333Y60700
X15333Y60700
X14333Y60700
X13333Y60700
X12333Y60700
X12333Y61700
X13333Y61700
X13333Y62700
X12333Y62700
X14333Y62200
X15333Y62200
X16333Y62200
X17333Y62200
X18333Y62200
X19333Y62200
X20333Y62700
X21333Y62700
X18333Y63700
X17333Y63700
X16333Y63700
X15333Y63700
X15333Y59700
X14333Y59700
X14333Y58700
X14333Y57700
X15333Y57700
X15333Y58700
X16333Y58700
X16333Y57700
X16333Y56700
X15333Y56700
X14333Y56700
X14333Y55700
X15333Y55700
X16333Y55700
X16333Y54700
X15333Y54700
X14333Y54700
X14333Y53700
X15333Y53700
X16333Y53700
X16333Y52700
X15333Y52700
X14333Y52700
X14333Y51700
X15333Y51700
X13333Y51700
X12333Y51700
X12333Y52700
X13333Y52700
X13333Y53700
X12333Y53700
X12333Y54700
X13333Y54700
X13333Y55700
X12333Y55700
X12333Y56700
X13333Y56700
X13333Y57700
X12333Y57700
X12333Y58700
X12333Y59700
X13333Y59700
X13333Y58700
X16333Y59700
X17333Y59700
X17333Y58700
X17333Y57700
X18333Y57700
X18333Y58700
X18333Y59700
X18333Y56700
X17333Y56700
X17333Y55700
X18333Y55700
X18333Y54700
X17333Y54700
X17333Y53700
X18333Y53700
X18333Y52700
X17333Y52700
X19333Y52700
X20333Y52700
X20333Y51700
X21333Y51700
X21333Y52700
X21333Y53700
X21333Y54700
X20333Y54700
X19333Y54700
X19333Y53700
X20333Y53700
X18333Y49500
X17333Y49500
X16333Y49500
X15333Y49500
X15333Y48000
X14333Y48000
X13333Y47500
X12333Y47500
X12333Y48500
X13333Y48500
X13333Y46500
X12333Y46500
X12333Y45500
X13333Y45500
X13333Y44500
X12333Y44500
X12333Y43500
X13333Y43500
X13333Y42500
X12333Y42500
X12333Y41500
X13333Y41500
X13333Y40500
X12333Y40500
X12333Y39500
X13333Y39500
X13333Y38500
X12333Y38500
X12333Y37500
X13333Y37500
X14333Y37500
X14333Y38500
X15333Y38500
X15333Y37500
X16333Y38500
X16333Y39500
X15333Y39500
X14333Y39500
X14333Y40500
X15333Y40500
X16333Y40500
X16333Y41500
X15333Y41500
X14333Y41500
X14333Y42500
X15333Y42500
X16333Y42500
X16333Y43500
X15333Y43500
X14333Y43500
X14333Y44500
X15333Y44500
X16333Y44500
X16333Y45500
X15333Y45500
X14333Y45500
X14333Y46500
X15333Y46500
X16333Y46500
X17333Y46500
X17333Y45500
X18333Y45500
X18333Y46500
X19333Y46500
X19333Y45500
X20333Y45500
X20333Y46500
X20333Y47500
X20333Y48500
X19333Y48000
X18333Y48000
X17333Y48000
X16333Y48000
X17333Y44500
X17333Y43500
X18333Y43500
X18333Y44500
X19333Y44500
X19333Y43500
X20333Y43500
X20333Y44500
X21333Y44500
X21333Y43500
X21333Y42500
X21333Y41500
X20333Y41500
X19333Y41500
X19333Y42500
X20333Y42500
X18333Y42500
X17333Y42500
X17333Y41500
X18333Y41500
X18333Y40500
X17333Y40500
X17333Y39500
X18333Y39500
X18333Y38500
X17333Y38500
X19333Y38500
X20333Y38500
X20333Y37500
X21333Y37500
X21333Y38500
X21333Y39500
X21333Y40500
X20333Y40500
X19333Y40500
X19333Y39500
X20333Y39500
X18333Y35300
X17333Y35300
X16333Y35300
X15333Y35300
X15333Y33800
X14333Y33800
X13333Y33300
X12333Y33300
X12333Y34300
X13333Y34300
X13333Y32300
X12333Y32300
X12333Y31300
X13333Y31300
X13333Y30300
X12333Y30300
X12333Y29300
X13333Y29300
X13333Y28300
X12333Y28300
X12333Y27300
X13333Y27300
X13333Y26300
X12333Y26300
X12333Y25300
X13333Y25300
X13333Y24300
X12333Y24300
X12333Y23300
X13333Y23300
X14333Y23300
X14333Y24300
X15333Y24300
X15333Y23300
X16333Y24300
X16333Y25300
X15333Y25300
X14333Y25300
X14333Y26300
X15333Y26300
X16333Y26300
X16333Y27300
X15333Y27300
X14333Y27300
X14333Y28300
X15333Y28300
X16333Y28300
X16333Y29300
X15333Y29300
X14333Y29300
X14333Y30300
X15333Y30300
X16333Y30300
X16333Y31300
X15333Y31300
X14333Y31300
X14333Y32300
X15333Y32300
X16333Y32300
X17333Y32300
X17333Y31300
X18333Y31300
X18333Y32300
X19333Y32300
X19333Y31300
X20333Y31300
X20333Y32300
X20333Y33300
X20333Y34300
X19333Y33800
X18333Y33800
X17333Y33800
X16333Y33800
X17333Y30300
X17333Y29300
X18333Y29300
X18333Y30300
X19333Y30300
X19333Y29300
X20333Y29300
X20333Y30300
X21333Y30300
X21333Y29300
X21333Y28300
X21333Y27300
X20333Y27300
X19333Y27300
X19333Y28300
X20333Y28300
X18333Y28300
X17333Y28300
X17333Y27300
X18333Y27300
X18333Y26300
X17333Y26300
X17333Y25300
X18333Y25300
X18333Y24300
X17333Y24300
X19333Y24300
X20333Y24300
X20333Y23300
X21333Y23300
X21333Y24300
X21333Y25300
X21333Y26300
X20333Y26300
X19333Y26300
X19333Y25300
X20333Y25300
X18333Y21100
X17333Y21100
X16333Y21100
X15333Y21100
X15333Y19600
X14333Y19600
X13333Y19100
X12333Y19100
X12333Y20100
X13333Y20100
X13333Y18100
X12333Y18100
X12333Y17100
X13333Y17100
X13333Y16100
X12333Y16100
X12333Y15100
X13333Y15100
X13333Y14100
X12333Y14100
X12333Y13100
X13333Y13100
X13333Y12100
X12333Y12100
X12333Y11100
X13333Y11100
X13333Y10100
X12333Y10100
X12333Y9100
X13333Y9100
X14333Y9100
X14333Y10100
X15333Y10100
X15333Y9100
X16333Y10100
X16333Y11100
X15333Y11100
X14333Y11100
X14333Y12100
X15333Y12100
X16333Y12100
X16333Y13100
X15333Y13100
X14333Y13100
X14333Y14100
X15333Y14100
X16333Y14100
X16333Y15100
X15333Y15100
X14333Y15100
X14333Y16100
X15333Y16100
X16333Y16100
X16333Y17100
X15333Y17100
X14333Y17100
X14333Y18100
X15333Y18100
X16333Y18100
X17333Y18100
X17333Y17100
X18333Y17100
X18333Y18100
X19333Y18100
X19333Y17100
X20333Y17100
X20333Y18100
X20333Y19100
X20333Y20100
X19333Y19600
X18333Y19600
X17333Y19600
X16333Y19600
X17333Y16100
X17333Y15100
X18333Y15100
X18333Y16100
X19333Y16100
X19333Y15100
X20333Y15100
X20333Y16100
X21333Y16100
X21333Y15100
X21333Y14100
X21333Y13100
X20333Y13100
X19333Y13100
X19333Y14100
X20333Y14100
X18333Y14100
X17333Y14100
X17333Y13100
X18333Y13100
X18333Y12100
X17333Y12100
X17333Y11100
X18333Y11100
X18333Y10100
X17333Y10100
X19333Y10100
X20333Y10100
X20333Y9100
X21333Y9100
X21333Y10100
X21333Y11100
X21333Y12100
X20333Y12100
X19333Y12100
X19333Y11100
X20333Y11100
X21333Y17100
X21333Y18100
X21333Y19100
X21333Y20100
X29533Y20100
X29533Y19100
X30533Y19100
X30533Y20100
X31533Y19600
X32533Y19600
X33533Y19600
X34533Y19600
X35533Y19600
X36533Y19600
X37533Y19100
X37533Y20100
X38533Y20100
X38533Y19100
X38533Y18100
X37533Y18100
X37533Y17100
X38533Y17100
X38533Y16100
X37533Y16100
X37533Y15100
X38533Y15100
X38533Y14100
X37533Y14100
X37533Y13100
X38533Y13100
X38533Y12100
X37533Y12100
X37533Y11100
X38533Y11100
X38533Y10100
X37533Y10100
X37533Y9100
X38533Y9100
X36533Y10100
X35533Y10100
X34533Y10100
X33533Y10100
X32533Y10100
X31533Y10100
X31533Y9100
X32533Y9100
X30533Y9100
X29533Y9100
X29533Y10100
X30533Y10100
X30533Y11100
X29533Y11100
X29533Y12100
X30533Y12100
X30533Y13100
X29533Y13100
X29533Y14100
X30533Y14100
X30533Y15100
X29533Y15100
X29533Y16100
X30533Y16100
X30533Y17100
X29533Y17100
X29533Y18100
X30533Y18100
X31533Y18100
X31533Y17100
X32533Y17100
X32533Y18100
X33533Y18100
X33533Y17100
X34533Y17100
X34533Y18100
X35533Y18100
X35533Y17100
X36533Y17100
X36533Y18100
X36533Y16100
X35533Y16100
X35533Y15100
X36533Y15100
X36533Y14100
X35533Y14100
X35533Y13100
X36533Y13100
X36533Y12100
X35533Y12100
X35533Y11100
X36533Y11100
X34533Y11100
X33533Y11100
X33533Y12100
X34533Y12100
X34533Y13100
X33533Y13100
X33533Y14100
X34533Y14100
X34533Y15100
X33533Y15100
X33533Y16100
X34533Y16100
X32533Y16100
X31533Y16100
X31533Y15100
X32533Y15100
X32533Y14100
X31533Y14100
X31533Y13100
X32533Y13100
X32533Y12100
X31533Y12100
X31533Y11100
X32533Y11100
X32533Y21100
X33533Y21100
X34533Y21100
X35533Y21100
X37533Y23300
X37533Y24300
X38533Y24300
X38533Y23300
X38533Y25300
X37533Y25300
X37533Y26300
X38533Y26300
X38533Y27300
X37533Y27300
X37533Y28300
X38533Y28300
X38533Y29300
X37533Y29300
X37533Y30300
X38533Y30300
X38533Y31300
X37533Y31300
X37533Y32300
X38533Y32300
X38533Y33300
X37533Y33300
X37533Y34300
X38533Y34300
X36533Y33800
X35533Y33800
X34533Y33800
X33533Y33800
X32533Y33800
X31533Y33800
X30533Y33300
X29533Y33300
X29533Y34300
X30533Y34300
X30533Y32300
X29533Y32300
X29533Y31300
X30533Y31300
X30533Y30300
X29533Y30300
X29533Y29300
X30533Y29300
X30533Y28300
X29533Y28300
X29533Y27300
X30533Y27300
X30533Y26300
X29533Y26300
X29533Y25300
X30533Y25300
X30533Y24300
X29533Y24300
X29533Y23300
X30533Y23300
X31533Y23300
X31533Y24300
X32533Y24300
X32533Y23300
X33533Y24300
X34533Y24300
X34533Y25300
X33533Y25300
X33533Y26300
X34533Y26300
X34533Y27300
X33533Y27300
X33533Y28300
X34533Y28300
X34533Y29300
X33533Y29300
X33533Y30300
X34533Y30300
X34533Y31300
X33533Y31300
X33533Y32300
X34533Y32300
X35533Y32300
X35533Y31300
X36533Y31300
X36533Y32300
X36533Y30300
X35533Y30300
X35533Y29300
X36533Y29300
X36533Y28300
X35533Y28300
X35533Y27300
X36533Y27300
X36533Y26300
X35533Y26300
X35533Y25300
X36533Y25300
X36533Y24300
X35533Y24300
X32533Y25300
X31533Y25300
X31533Y26300
X32533Y26300
X32533Y27300
X31533Y27300
X31533Y28300
X32533Y28300
X32533Y29300
X31533Y29300
X31533Y30300
X32533Y30300
X32533Y31300
X31533Y31300
X31533Y32300
X32533Y32300
X32533Y35300
X33533Y35300
X34533Y35300
X35533Y35300
X46733Y34300
X46733Y33300
X46733Y32300
X46733Y31300
X46733Y30300
X46733Y29300
X46733Y28300
X46733Y27300
X46733Y26300
X46733Y25300
X46733Y24300
X46733Y23300
X47733Y23300
X47733Y24300
X48733Y24300
X48733Y23300
X49733Y23300
X49733Y24300
X50733Y24300
X51733Y24300
X51733Y25300
X50733Y25300
X49733Y25300
X49733Y26300
X50733Y26300
X51733Y26300
X51733Y27300
X50733Y27300
X49733Y27300
X49733Y28300
X50733Y28300
X51733Y28300
X51733Y29300
X50733Y29300
X49733Y29300
X49733Y30300
X50733Y30300
X51733Y30300
X51733Y31300
X50733Y31300
X49733Y31300
X49733Y32300
X50733Y32300
X51733Y32300
X52733Y32300
X52733Y31300
X53733Y31300
X53733Y32300
X54733Y32300
X54733Y31300
X55733Y31300
X55733Y32300
X55733Y33300
X54733Y33300
X54733Y34300
X55733Y34300
X53733Y33800
X52733Y33800
X51733Y33800
X50733Y33800
X49733Y33800
X48733Y33800
X47733Y34300
X47733Y33300
X47733Y32300
X47733Y31300
X48733Y31300
X48733Y32300
X48733Y30300
X47733Y30300
X47733Y29300
X48733Y29300
X48733Y28300
X47733Y28300
X47733Y27300
X48733Y27300
X48733Y26300
X47733Y26300
X47733Y25300
X48733Y25300
X52733Y25300
X52733Y26300
X53733Y26300
X53733Y25300
X53733Y24300
X52733Y24300
X54733Y24300
X54733Y23300
X55733Y23300
X55733Y24300
X55733Y25300
X54733Y25300
X54733Y26300
X55733Y26300
X55733Y27300
X54733Y27300
X54733Y28300
X55733Y28300
X55733Y29300
X54733Y29300
X54733Y30300
X55733Y30300
X53733Y30300
X52733Y30300
X52733Y29300
X53733Y29300
X53733Y28300
X52733Y28300
X52733Y27300
X53733Y27300
X52733Y21100
X51733Y21100
X50733Y21100
X49733Y21100
X49733Y19600
X50733Y19600
X51733Y19600
X52733Y19600
X53733Y19600
X54733Y19100
X54733Y20100
X55733Y20100
X55733Y19100
X55733Y18100
X54733Y18100
X54733Y17100
X55733Y17100
X55733Y16100
X54733Y16100
X54733Y15100
X55733Y15100
X55733Y14100
X54733Y14100
X54733Y13100
X55733Y13100
X55733Y12100
X54733Y12100
X54733Y11100
X55733Y11100
X55733Y10100
X54733Y10100
X54733Y9100
X55733Y9100
X53733Y10100
X52733Y10100
X51733Y10100
X50733Y10100
X49733Y10100
X49733Y9100
X48733Y9100
X47733Y9100
X47733Y10100
X48733Y10100
X48733Y11100
X47733Y11100
X47733Y12100
X48733Y12100
X48733Y13100
X47733Y13100
X47733Y14100
X48733Y14100
X48733Y15100
X47733Y15100
X47733Y16100
X48733Y16100
X48733Y17100
X47733Y17100
X47733Y18100
X48733Y18100
X49733Y18100
X49733Y17100
X50733Y17100
X50733Y18100
X51733Y18100
X51733Y17100
X51733Y16100
X50733Y16100
X49733Y16100
X49733Y15100
X50733Y15100
X51733Y15100
X51733Y14100
X50733Y14100
X49733Y14100
X49733Y13100
X50733Y13100
X51733Y13100
X51733Y12100
X50733Y12100
X49733Y12100
X49733Y11100
X50733Y11100
X51733Y11100
X52733Y11100
X52733Y12100
X53733Y12100
X53733Y11100
X53733Y13100
X52733Y13100
X52733Y14100
X53733Y14100
X53733Y15100
X52733Y15100
X52733Y16100
X53733Y16100
X53733Y17100
X52733Y17100
X52733Y18100
X53733Y18100
X48733Y19600
X47733Y20100
X47733Y19100
X46733Y19100
X46733Y20100
X46733Y18100
X46733Y17100
X46733Y16100
X46733Y15100
X46733Y14100
X46733Y13100
X46733Y12100
X46733Y11100
X46733Y10100
X46733Y9100
X21333Y31300
X21333Y32300
X21333Y33300
X21333Y34300
X21333Y45500
X21333Y46500
X21333Y47500
X21333Y48500
X46733Y48500
X46733Y47500
X46733Y46500
X46733Y45500
X46733Y44500
X46733Y43500
X46733Y42500
X46733Y41500
X46733Y40500
X46733Y39500
X46733Y38500
X46733Y37500
X47733Y37500
X47733Y38500
X48733Y38500
X48733Y37500
X49733Y37500
X49733Y38500
X50733Y38500
X51733Y38500
X51733Y39500
X50733Y39500
X49733Y39500
X49733Y40500
X50733Y40500
X51733Y40500
X51733Y41500
X50733Y41500
X49733Y41500
X49733Y42500
X50733Y42500
X51733Y42500
X51733Y43500
X50733Y43500
X49733Y43500
X49733Y44500
X50733Y44500
X51733Y44500
X51733Y45500
X50733Y45500
X49733Y45500
X49733Y46500
X50733Y46500
X51733Y46500
X52733Y46500
X52733Y45500
X53733Y45500
X53733Y46500
X54733Y46500
X54733Y45500
X55733Y45500
X55733Y46500
X55733Y47500
X54733Y47500
X54733Y48500
X55733Y48500
X53733Y48000
X52733Y48000
X51733Y48000
X50733Y48000
X49733Y48000
X48733Y48000
X47733Y48500
X47733Y47500
X47733Y46500
X47733Y45500
X48733Y45500
X48733Y46500
X48733Y44500
X47733Y44500
X47733Y43500
X48733Y43500
X48733Y42500
X47733Y42500
X47733Y41500
X48733Y41500
X48733Y40500
X47733Y40500
X47733Y39500
X48733Y39500
X52733Y39500
X52733Y40500
X53733Y40500
X53733Y39500
X53733Y38500
X52733Y38500
X54733Y38500
X54733Y37500
X55733Y37500
X55733Y38500
X55733Y39500
X54733Y39500
X54733Y40500
X55733Y40500
X55733Y41500
X54733Y41500
X54733Y42500
X55733Y42500
X55733Y43500
X54733Y43500
X54733Y44500
X55733Y44500
X53733Y44500
X52733Y44500
X52733Y43500
X53733Y43500
X53733Y42500
X52733Y42500
X52733Y41500
X53733Y41500
X52733Y35300
X51733Y35300
X50733Y35300
X49733Y35300
X49733Y49500
X50733Y49500
X51733Y49500
X52733Y49500
X54733Y51700
X54733Y52700
X55733Y52700
X55733Y51700
X55733Y53700
X54733Y53700
X54733Y54700
X55733Y54700
X55733Y55700
X54733Y55700
X54733Y56700
X55733Y56700
X55733Y57700
X54733Y57700
X54733Y58700
X54733Y59700
X55733Y59700
X55733Y58700
X53733Y58700
X52733Y58700
X52733Y57700
X53733Y57700
X53733Y56700
X52733Y56700
X52733Y55700
X53733Y55700
X53733Y54700
X52733Y54700
X52733Y53700
X53733Y53700
X53733Y52700
X52733Y52700
X51733Y52700
X50733Y52700
X49733Y52700
X49733Y51700
X48733Y51700
X47733Y51700
X47733Y52700
X48733Y52700
X48733Y53700
X47733Y53700
X47733Y54700
X48733Y54700
X48733Y55700
X47733Y55700
X47733Y56700
X48733Y56700
X48733Y57700
X47733Y57700
X47733Y58700
X47733Y59700
X48733Y59700
X48733Y58700
X49733Y58700
X49733Y57700
X50733Y57700
X50733Y58700
X50733Y59700
X49733Y59700
X49733Y60700
X50733Y60700
X51733Y60700
X51733Y59700
X51733Y58700
X51733Y57700
X51733Y56700
X50733Y56700
X49733Y56700
X49733Y55700
X50733Y55700
X51733Y55700
X51733Y54700
X50733Y54700
X49733Y54700
X49733Y53700
X50733Y53700
X51733Y53700
X46733Y53700
X46733Y54700
X46733Y55700
X46733Y56700
X46733Y57700
X46733Y58700
X46733Y59700
X46733Y60700
X46733Y61700
X46733Y62700
X47733Y62700
X48733Y62200
X47733Y61700
X47733Y60700
X48733Y60700
X49733Y62200
X50733Y62200
X51733Y62200
X52733Y62200
X53733Y62200
X54733Y61700
X54733Y60700
X55733Y60700
X55733Y61700
X55733Y62700
X54733Y62700
X52733Y63700
X51733Y63700
X50733Y63700
X49733Y63700
X52733Y60700
X53733Y60700
X53733Y59700
X52733Y59700
X46733Y52700
X46733Y51700
T03
X9333Y8600
X9333Y20600
X9333Y22800
X9333Y34800
X9333Y37000
X9333Y49000
X9333Y51200
X9333Y63200
X24333Y63200
X26533Y63200
X26533Y51200
X24333Y51200
X24333Y49000
X26533Y49000
X26533Y37000
X24333Y37000
X24333Y34800
X26533Y34800
X26533Y22800
X24333Y22800
X24333Y20600
X26533Y20600
X26533Y8600
X24333Y8600
X41533Y8600
X43733Y8600
X43733Y20600
X41533Y20600
X41533Y22800
X43733Y22800
X43733Y34800
X41533Y34800
X41533Y37000
X43733Y37000
X43733Y49000
X41533Y49000
X41533Y51200
X43733Y51200
X43733Y63200
X41533Y63200
X58733Y63200
X58733Y51200
X58733Y49000
X58733Y37000
X58733Y34800
X58733Y22800
X58733Y20600
X58733Y8600
M30
